<svg width="179" height="96" viewBox="0 0 179 96" fill="none" xmlns="http://www.w3.org/2000/svg">
<mask id="path-1-outside-1_1_3129" maskUnits="userSpaceOnUse" x="0.174805" y="31" width="148" height="46" fill="black">
<rect fill="white" x="0.174805" y="31" width="148" height="46"/>
<path d="M2.52637 43.12V34.24H24.2064V74H13.8064V43.12H2.52637ZM61.2982 74.96C56.2849 74.96 51.8582 74.16 48.0182 72.56C44.2316 70.96 41.2716 68.64 39.1382 65.6C37.0049 62.5067 35.9382 58.72 35.9382 54.24C35.9382 49.76 37.0049 45.9733 39.1382 42.88C41.2716 39.7333 44.2316 37.36 48.0182 35.76C51.8582 34.16 56.2849 33.36 61.2982 33.36C66.3116 33.36 70.6849 34.16 74.4182 35.76C78.2049 37.36 81.1649 39.7333 83.2982 42.88C85.4316 45.9733 86.4982 49.76 86.4982 54.24C86.4982 58.72 85.4316 62.5067 83.2982 65.6C81.1649 68.64 78.2049 70.96 74.4182 72.56C70.6849 74.16 66.3116 74.96 61.2982 74.96ZM61.2982 66.96C64.0182 66.96 66.4716 66.48 68.6582 65.52C70.8982 64.5067 72.6582 63.0667 73.9382 61.2C75.2716 59.28 75.9382 56.96 75.9382 54.24C75.9382 51.52 75.2716 49.2 73.9382 47.28C72.6582 45.3067 70.9249 43.8133 68.7382 42.8C66.5516 41.7867 64.0716 41.28 61.2982 41.28C58.5782 41.28 56.0982 41.7867 53.8582 42.8C51.6182 43.8133 49.8316 45.28 48.4982 47.2C47.1649 49.12 46.4982 51.4667 46.4982 54.24C46.4982 56.96 47.1382 59.28 48.4182 61.2C49.7516 63.0667 51.5382 64.5067 53.7782 65.52C56.0182 66.48 58.5249 66.96 61.2982 66.96ZM120.361 74.96C115.347 74.96 110.921 74.16 107.081 72.56C103.294 70.96 100.334 68.64 98.2007 65.6C96.0674 62.5067 95.0007 58.72 95.0007 54.24C95.0007 49.76 96.0674 45.9733 98.2007 42.88C100.334 39.7333 103.294 37.36 107.081 35.76C110.921 34.16 115.347 33.36 120.361 33.36C125.374 33.36 129.747 34.16 133.481 35.76C137.267 37.36 140.227 39.7333 142.361 42.88C144.494 45.9733 145.561 49.76 145.561 54.24C145.561 58.72 144.494 62.5067 142.361 65.6C140.227 68.64 137.267 70.96 133.481 72.56C129.747 74.16 125.374 74.96 120.361 74.96ZM120.361 66.96C123.081 66.96 125.534 66.48 127.721 65.52C129.961 64.5067 131.721 63.0667 133.001 61.2C134.334 59.28 135.001 56.96 135.001 54.24C135.001 51.52 134.334 49.2 133.001 47.28C131.721 45.3067 129.987 43.8133 127.801 42.8C125.614 41.7867 123.134 41.28 120.361 41.28C117.641 41.28 115.161 41.7867 112.921 42.8C110.681 43.8133 108.894 45.28 107.561 47.2C106.227 49.12 105.561 51.4667 105.561 54.24C105.561 56.96 106.201 59.28 107.481 61.2C108.814 63.0667 110.601 64.5067 112.841 65.52C115.081 66.48 117.587 66.96 120.361 66.96Z"/>
</mask>
<path d="M2.52637 43.12H0.526367V45.12H2.52637V43.12ZM2.52637 34.24V32.24H0.526367V34.24H2.52637ZM24.2064 34.24H26.2064V32.24H24.2064V34.24ZM24.2064 74V76H26.2064V74H24.2064ZM13.8064 74H11.8064V76H13.8064V74ZM13.8064 43.12H15.8064V41.12H13.8064V43.12ZM4.52637 43.12V34.24H0.526367V43.12H4.52637ZM2.52637 36.24H24.2064V32.24H2.52637V36.24ZM22.2064 34.24V74H26.2064V34.24H22.2064ZM24.2064 72H13.8064V76H24.2064V72ZM15.8064 74V43.12H11.8064V74H15.8064ZM13.8064 41.12H2.52637V45.12H13.8064V41.12ZM48.0182 72.56L47.2398 74.4023L47.249 74.4062L48.0182 72.56ZM39.1382 65.6L37.4918 66.7355L37.4964 66.7422L37.5011 66.7488L39.1382 65.6ZM39.1382 42.88L40.7847 44.0155L40.7892 44.0089L40.7937 44.0023L39.1382 42.88ZM48.0182 35.76L47.249 33.9138L47.2398 33.9177L48.0182 35.76ZM74.4182 35.76L73.6304 37.5983L73.6398 37.6023L74.4182 35.76ZM83.2982 42.88L81.6428 44.0023L81.6473 44.0089L81.6518 44.0155L83.2982 42.88ZM83.2982 65.6L84.9354 66.7488L84.94 66.7422L84.9447 66.7355L83.2982 65.6ZM74.4182 72.56L73.6398 70.7177L73.6304 70.7217L74.4182 72.56ZM68.6582 65.52L69.4622 67.3513L69.4724 67.3468L69.4826 67.3422L68.6582 65.52ZM73.9382 61.2L72.2955 60.0592L72.2888 60.0689L73.9382 61.2ZM73.9382 47.28L72.2603 48.3684L72.2775 48.3949L72.2955 48.4208L73.9382 47.28ZM68.7382 42.8L69.5792 40.9854H69.5792L68.7382 42.8ZM48.4982 47.2L50.141 48.3408L48.4982 47.2ZM48.4182 61.2L46.7541 62.3094L46.772 62.3362L46.7908 62.3625L48.4182 61.2ZM53.7782 65.52L52.9539 67.3422L52.9721 67.3504L52.9904 67.3583L53.7782 65.52ZM61.2982 72.96C56.496 72.96 52.3392 72.1937 48.7875 70.7138L47.249 74.4062C51.3773 76.1263 56.0738 76.96 61.2982 76.96V72.96ZM48.7967 70.7177C45.3175 69.2476 42.6706 67.1518 40.7754 64.4511L37.5011 66.7488C39.8726 70.1282 43.1457 72.6724 47.2398 74.4023L48.7967 70.7177ZM40.7847 64.4645C38.923 61.7651 37.9382 58.394 37.9382 54.24H33.9382C33.9382 59.046 35.0868 63.2482 37.4918 66.7355L40.7847 64.4645ZM37.9382 54.24C37.9382 50.086 38.923 46.7149 40.7847 44.0155L37.4918 41.7445C35.0868 45.2318 33.9382 49.434 33.9382 54.24H37.9382ZM40.7937 44.0023C42.6926 41.2014 45.3355 39.0647 48.7967 37.6023L47.2398 33.9177C43.1276 35.6553 39.8505 38.2653 37.4828 41.7577L40.7937 44.0023ZM48.7875 37.6062C52.3392 36.1263 56.496 35.36 61.2982 35.36V31.36C56.0738 31.36 51.3773 32.1937 47.249 33.9138L48.7875 37.6062ZM61.2982 35.36C66.1024 35.36 70.197 36.1268 73.6304 37.5983L75.2061 33.9217C71.1728 32.1931 66.5208 31.36 61.2982 31.36V35.36ZM73.6398 37.6023C77.101 39.0647 79.7439 41.2014 81.6428 44.0023L84.9537 41.7577C82.586 38.2653 79.3089 35.6553 75.1967 33.9177L73.6398 37.6023ZM81.6518 44.0155C83.5135 46.7149 84.4982 50.086 84.4982 54.24H88.4982C88.4982 49.434 87.3497 45.2318 84.9447 41.7445L81.6518 44.0155ZM84.4982 54.24C84.4982 58.394 83.5135 61.7651 81.6518 64.4645L84.9447 66.7355C87.3497 63.2482 88.4982 59.046 88.4982 54.24H84.4982ZM81.6611 64.4511C79.7659 67.1518 77.119 69.2476 73.6398 70.7177L75.1967 74.4023C79.2908 72.6724 82.5639 70.1282 84.9354 66.7488L81.6611 64.4511ZM73.6304 70.7217C70.197 72.1932 66.1024 72.96 61.2982 72.96V76.96C66.5208 76.96 71.1728 76.1268 75.2061 74.3983L73.6304 70.7217ZM61.2982 68.96C64.2567 68.96 66.9892 68.437 69.4622 67.3513L67.8543 63.6887C65.9539 64.523 63.7798 64.96 61.2982 64.96V68.96ZM69.4826 67.3422C72.0259 66.1917 74.0833 64.525 75.5877 62.3311L72.2888 60.0689C71.2332 61.6083 69.7706 62.8217 67.8339 63.6978L69.4826 67.3422ZM75.581 62.3408C77.1832 60.0336 77.9382 57.2991 77.9382 54.24H73.9382C73.9382 56.6209 73.3599 58.5264 72.2955 60.0592L75.581 62.3408ZM77.9382 54.24C77.9382 51.1809 77.1832 48.4464 75.581 46.1392L72.2955 48.4208C73.3599 49.9536 73.9382 51.8591 73.9382 54.24H77.9382ZM75.6162 46.1916C74.1259 43.8941 72.0988 42.153 69.5792 40.9854L67.8973 44.6146C69.751 45.4737 71.1906 46.7192 72.2603 48.3684L75.6162 46.1916ZM69.5792 40.9854C67.092 39.8328 64.3184 39.28 61.2982 39.28V43.28C63.8248 43.28 66.0111 43.7405 67.8973 44.6146L69.5792 40.9854ZM61.2982 39.28C58.3244 39.28 55.5593 39.8353 53.0339 40.9778L54.6826 44.6222C56.6372 43.738 58.8321 43.28 61.2982 43.28V39.28ZM53.0339 40.9778C50.4823 42.1321 48.4059 43.8266 46.8555 46.0592L50.141 48.3408C51.2573 46.7334 52.7542 45.4946 54.6826 44.6222L53.0339 40.9778ZM46.8555 46.0592C45.2488 48.3728 44.4982 51.1366 44.4982 54.24H48.4982C48.4982 51.7967 49.081 49.8672 50.141 48.3408L46.8555 46.0592ZM44.4982 54.24C44.4982 57.2828 45.2183 60.0057 46.7541 62.3094L50.0823 60.0906C49.0582 58.5543 48.4982 56.6372 48.4982 54.24H44.4982ZM46.7908 62.3625C48.3437 64.5366 50.4166 66.1944 52.9539 67.3422L54.6026 63.6978C52.6599 62.819 51.1595 61.5968 50.0457 60.0375L46.7908 62.3625ZM52.9904 67.3583C55.5114 68.4387 58.2913 68.96 61.2982 68.96V64.96C58.7585 64.96 56.5251 64.5213 54.5661 63.6817L52.9904 67.3583ZM107.081 72.56L106.302 74.4023L106.312 74.4062L107.081 72.56ZM98.2007 65.6L96.5543 66.7355L96.5589 66.7422L96.5636 66.7488L98.2007 65.6ZM98.2007 42.88L99.8472 44.0155L99.8517 44.0089L99.8562 44.0023L98.2007 42.88ZM107.081 35.76L106.312 33.9138L106.302 33.9177L107.081 35.76ZM133.481 35.76L132.693 37.5983L132.702 37.6023L133.481 35.76ZM142.361 42.88L140.705 44.0023L140.71 44.0089L140.714 44.0155L142.361 42.88ZM142.361 65.6L143.998 66.7488L144.003 66.7422L144.007 66.7355L142.361 65.6ZM133.481 72.56L132.702 70.7177L132.693 70.7217L133.481 72.56ZM127.721 65.52L128.525 67.3513L128.535 67.3468L128.545 67.3422L127.721 65.52ZM133.001 61.2L131.358 60.0592L131.351 60.0689L133.001 61.2ZM133.001 47.28L131.323 48.3684L131.34 48.3949L131.358 48.4208L133.001 47.28ZM127.801 42.8L128.642 40.9854L127.801 42.8ZM107.561 47.2L109.203 48.3408L107.561 47.2ZM107.481 61.2L105.817 62.3094L105.835 62.3362L105.853 62.3625L107.481 61.2ZM112.841 65.52L112.016 67.3422L112.035 67.3504L112.053 67.3583L112.841 65.52ZM120.361 72.96C115.559 72.96 111.402 72.1937 107.85 70.7138L106.312 74.4062C110.44 76.1263 115.136 76.96 120.361 76.96V72.96ZM107.859 70.7177C104.38 69.2476 101.733 67.1518 99.8379 64.4511L96.5636 66.7488C98.9351 70.1282 102.208 72.6724 106.302 74.4023L107.859 70.7177ZM99.8472 64.4645C97.9855 61.7651 97.0007 58.394 97.0007 54.24H93.0007C93.0007 59.046 94.1493 63.2482 96.5543 66.7355L99.8472 64.4645ZM97.0007 54.24C97.0007 50.086 97.9855 46.7149 99.8472 44.0155L96.5543 41.7445C94.1493 45.2318 93.0007 49.434 93.0007 54.24H97.0007ZM99.8562 44.0023C101.755 41.2014 104.398 39.0647 107.859 37.6023L106.302 33.9177C102.19 35.6553 98.913 38.2653 96.5453 41.7577L99.8562 44.0023ZM107.85 37.6062C111.402 36.1263 115.559 35.36 120.361 35.36V31.36C115.136 31.36 110.44 32.1937 106.312 33.9138L107.85 37.6062ZM120.361 35.36C125.165 35.36 129.26 36.1268 132.693 37.5983L134.269 33.9217C130.235 32.1931 125.583 31.36 120.361 31.36V35.36ZM132.702 37.6023C136.163 39.0647 138.806 41.2014 140.705 44.0023L144.016 41.7577C141.648 38.2653 138.371 35.6553 134.259 33.9177L132.702 37.6023ZM140.714 44.0155C142.576 46.7149 143.561 50.086 143.561 54.24H147.561C147.561 49.434 146.412 45.2318 144.007 41.7445L140.714 44.0155ZM143.561 54.24C143.561 58.394 142.576 61.7651 140.714 64.4645L144.007 66.7355C146.412 63.2482 147.561 59.046 147.561 54.24H143.561ZM140.724 64.4511C138.828 67.1518 136.182 69.2476 132.702 70.7177L134.259 74.4023C138.353 72.6724 141.626 70.1282 143.998 66.7488L140.724 64.4511ZM132.693 70.7217C129.26 72.1932 125.165 72.96 120.361 72.96V76.96C125.583 76.96 130.235 76.1268 134.269 74.3983L132.693 70.7217ZM120.361 68.96C123.319 68.96 126.052 68.437 128.525 67.3513L126.917 63.6887C125.016 64.523 122.842 64.96 120.361 64.96V68.96ZM128.545 67.3422C131.088 66.1917 133.146 64.525 134.65 62.3311L131.351 60.0689C130.296 61.6083 128.833 62.8217 126.896 63.6978L128.545 67.3422ZM134.643 62.3408C136.246 60.0336 137.001 57.2991 137.001 54.24H133.001C133.001 56.6209 132.422 58.5264 131.358 60.0592L134.643 62.3408ZM137.001 54.24C137.001 51.1809 136.246 48.4464 134.643 46.1392L131.358 48.4208C132.422 49.9536 133.001 51.8591 133.001 54.24H137.001ZM134.679 46.1916C133.188 43.8941 131.161 42.153 128.642 40.9854L126.96 44.6146C128.814 45.4737 130.253 46.7192 131.323 48.3684L134.679 46.1916ZM128.642 40.9854C126.155 39.8328 123.381 39.28 120.361 39.28V43.28C122.887 43.28 125.074 43.7405 126.96 44.6146L128.642 40.9854ZM120.361 39.28C117.387 39.28 114.622 39.8353 112.096 40.9778L113.745 44.6222C115.7 43.738 117.895 43.28 120.361 43.28V39.28ZM112.096 40.9778C109.545 42.1321 107.468 43.8266 105.918 46.0592L109.203 48.3408C110.32 46.7334 111.817 45.4946 113.745 44.6222L112.096 40.9778ZM105.918 46.0592C104.311 48.3728 103.561 51.1366 103.561 54.24H107.561C107.561 51.7967 108.143 49.8672 109.203 48.3408L105.918 46.0592ZM103.561 54.24C103.561 57.2828 104.281 60.0057 105.817 62.3094L109.145 60.0906C108.121 58.5543 107.561 56.6372 107.561 54.24H103.561ZM105.853 62.3625C107.406 64.5366 109.479 66.1944 112.016 67.3422L113.665 63.6978C111.722 62.819 110.222 61.5968 109.108 60.0375L105.853 62.3625ZM112.053 67.3583C114.574 68.4387 117.354 68.96 120.361 68.96V64.96C117.821 64.96 115.588 64.5213 113.629 63.6817L112.053 67.3583Z" fill="#C1C1C1" mask="url(#path-1-outside-1_1_3129)"/>
<path d="M158.151 41.737H176.551V45.537H158.151V41.737ZM169.511 36.097V51.217H165.191V36.097H169.511Z" fill="#0D0D0D"/>
</svg>
