<svg width="116" height="42" viewBox="0 0 116 42" fill="none" xmlns="http://www.w3.org/2000/svg">
<mask id="path-1-outside-1_1_3121" maskUnits="userSpaceOnUse" x="-1.74219" y="-2" width="120" height="46" fill="black">
<rect fill="white" x="-1.74219" y="-2" width="120" height="46"/>
<path d="M0.554688 10.12V1.24H22.2347V41H11.8347V10.12H0.554688ZM31.7266 10.12V1.24H53.4066V41H43.0066V10.12H31.7266ZM90.4984 41.96C85.4851 41.96 81.0584 41.16 77.2184 39.56C73.4318 37.96 70.4718 35.64 68.3384 32.6C66.2051 29.5067 65.1384 25.72 65.1384 21.24C65.1384 16.76 66.2051 12.9733 68.3384 9.88C70.4718 6.73333 73.4318 4.36 77.2184 2.76C81.0584 1.16 85.4851 0.359999 90.4984 0.359999C95.5118 0.359999 99.8851 1.16 103.618 2.76C107.405 4.36 110.365 6.73333 112.498 9.88C114.632 12.9733 115.698 16.76 115.698 21.24C115.698 25.72 114.632 29.5067 112.498 32.6C110.365 35.64 107.405 37.96 103.618 39.56C99.8851 41.16 95.5118 41.96 90.4984 41.96ZM90.4984 33.96C93.2184 33.96 95.6718 33.48 97.8584 32.52C100.098 31.5067 101.858 30.0667 103.138 28.2C104.472 26.28 105.138 23.96 105.138 21.24C105.138 18.52 104.472 16.2 103.138 14.28C101.858 12.3067 100.125 10.8133 97.9384 9.8C95.7518 8.78667 93.2718 8.28 90.4984 8.28C87.7784 8.28 85.2984 8.78667 83.0584 9.8C80.8184 10.8133 79.0318 12.28 77.6984 14.2C76.3651 16.12 75.6984 18.4667 75.6984 21.24C75.6984 23.96 76.3384 26.28 77.6184 28.2C78.9518 30.0667 80.7384 31.5067 82.9784 32.52C85.2184 33.48 87.7251 33.96 90.4984 33.96Z"/>
</mask>
<path d="M0.554688 10.12H-1.44531V12.12H0.554688V10.12ZM0.554688 1.24V-0.760002H-1.44531V1.24H0.554688ZM22.2347 1.24H24.2347V-0.760002H22.2347V1.24ZM22.2347 41V43H24.2347V41H22.2347ZM11.8347 41H9.83469V43H11.8347V41ZM11.8347 10.12H13.8347V8.12H11.8347V10.12ZM2.55469 10.12V1.24H-1.44531V10.12H2.55469ZM0.554688 3.24H22.2347V-0.760002H0.554688V3.24ZM20.2347 1.24V41H24.2347V1.24H20.2347ZM22.2347 39H11.8347V43H22.2347V39ZM13.8347 41V10.12H9.83469V41H13.8347ZM11.8347 8.12H0.554688V12.12H11.8347V8.12ZM31.7266 10.12H29.7266V12.12H31.7266V10.12ZM31.7266 1.24V-0.760002H29.7266V1.24H31.7266ZM53.4066 1.24H55.4066V-0.760002H53.4066V1.24ZM53.4066 41V43H55.4066V41H53.4066ZM43.0066 41H41.0066V43H43.0066V41ZM43.0066 10.12H45.0066V8.12H43.0066V10.12ZM33.7266 10.12V1.24H29.7266V10.12H33.7266ZM31.7266 3.24H53.4066V-0.760002H31.7266V3.24ZM51.4066 1.24V41H55.4066V1.24H51.4066ZM53.4066 39H43.0066V43H53.4066V39ZM45.0066 41V10.12H41.0066V41H45.0066ZM43.0066 8.12H31.7266V12.12H43.0066V8.12ZM77.2184 39.56L76.44 41.4023L76.4492 41.4062L77.2184 39.56ZM68.3384 32.6L66.692 33.7355L66.6966 33.7422L66.7013 33.7488L68.3384 32.6ZM68.3384 9.88L69.9849 11.0155L69.9894 11.0089L69.9939 11.0023L68.3384 9.88ZM77.2184 2.76L76.4492 0.913822L76.44 0.917706L77.2184 2.76ZM103.618 2.76L102.831 4.59831L102.84 4.60229L103.618 2.76ZM112.498 9.88L110.843 11.0023L110.847 11.0089L110.852 11.0155L112.498 9.88ZM112.498 32.6L114.136 33.7488L114.14 33.7422L114.145 33.7355L112.498 32.6ZM103.618 39.56L102.84 37.7177L102.831 37.7217L103.618 39.56ZM97.8584 32.52L98.6624 34.3513L98.6726 34.3468L98.6828 34.3422L97.8584 32.52ZM103.138 28.2L101.496 27.0592L101.489 27.0689L103.138 28.2ZM103.138 14.28L101.461 15.3684L101.478 15.3949L101.496 15.4208L103.138 14.28ZM97.9384 9.8L98.7794 7.98538H98.7794L97.9384 9.8ZM77.6984 14.2L79.3412 15.3408L77.6984 14.2ZM77.6184 28.2L75.9543 29.3094L75.9722 29.3362L75.991 29.3625L77.6184 28.2ZM82.9784 32.52L82.1541 34.3422L82.1723 34.3504L82.1906 34.3583L82.9784 32.52ZM90.4984 39.96C85.6962 39.96 81.5394 39.1937 77.9877 37.7138L76.4492 41.4062C80.5775 43.1263 85.274 43.96 90.4984 43.96V39.96ZM77.9969 37.7177C74.5176 36.2476 71.8708 34.1518 69.9755 31.4511L66.7013 33.7488C69.0728 37.1282 72.3459 39.6724 76.44 41.4023L77.9969 37.7177ZM69.9849 31.4645C68.1232 28.7651 67.1384 25.394 67.1384 21.24H63.1384C63.1384 26.046 64.287 30.2482 66.692 33.7355L69.9849 31.4645ZM67.1384 21.24C67.1384 17.086 68.1232 13.7149 69.9849 11.0155L66.692 8.74453C64.287 12.2318 63.1384 16.434 63.1384 21.24H67.1384ZM69.9939 11.0023C71.8928 8.20135 74.5357 6.06475 77.9969 4.60229L76.44 0.917706C72.3278 2.65525 69.0507 5.26531 66.683 8.75768L69.9939 11.0023ZM77.9877 4.60615C81.5394 3.12626 85.6962 2.36 90.4984 2.36V-1.64C85.274 -1.64 80.5775 -0.806267 76.4492 0.913845L77.9877 4.60615ZM90.4984 2.36C95.3026 2.36 99.3972 3.12685 102.831 4.59829L104.406 0.921707C100.373 -0.80685 95.721 -1.64 90.4984 -1.64V2.36ZM102.84 4.60229C106.301 6.06475 108.944 8.20135 110.843 11.0023L114.154 8.75768C111.786 5.26531 108.509 2.65525 104.397 0.917706L102.84 4.60229ZM110.852 11.0155C112.714 13.7149 113.698 17.086 113.698 21.24H117.698C117.698 16.434 116.55 12.2318 114.145 8.74453L110.852 11.0155ZM113.698 21.24C113.698 25.394 112.714 28.7651 110.852 31.4645L114.145 33.7355C116.55 30.2482 117.698 26.046 117.698 21.24H113.698ZM110.861 31.4511C108.966 34.1518 106.319 36.2476 102.84 37.7177L104.397 41.4023C108.491 39.6724 111.764 37.1282 114.136 33.7488L110.861 31.4511ZM102.831 37.7217C99.3972 39.1932 95.3026 39.96 90.4984 39.96V43.96C95.721 43.96 100.373 43.1268 104.406 41.3983L102.831 37.7217ZM90.4984 35.96C93.4569 35.96 96.1894 35.437 98.6624 34.3513L97.0545 30.6887C95.1541 31.523 92.98 31.96 90.4984 31.96V35.96ZM98.6828 34.3422C101.226 33.1917 103.283 31.525 104.788 29.3311L101.489 27.0689C100.433 28.6083 98.9708 29.8217 97.0341 30.6978L98.6828 34.3422ZM104.781 29.3408C106.383 27.0336 107.138 24.2991 107.138 21.24H103.138C103.138 23.6209 102.56 25.5264 101.496 27.0592L104.781 29.3408ZM107.138 21.24C107.138 18.1809 106.383 15.4464 104.781 13.1392L101.496 15.4208C102.56 16.9536 103.138 18.8591 103.138 21.24H107.138ZM104.816 13.1916C103.326 10.8941 101.299 9.153 98.7794 7.98538L97.0975 11.6146C98.9512 12.4737 100.391 13.7192 101.461 15.3684L104.816 13.1916ZM98.7794 7.98538C96.2922 6.83281 93.5186 6.28 90.4984 6.28V10.28C93.025 10.28 95.2113 10.7405 97.0975 11.6146L98.7794 7.98538ZM90.4984 6.28C87.5246 6.28 84.7595 6.83534 82.2341 7.97778L83.8828 11.6222C85.8374 10.738 88.0323 10.28 90.4984 10.28V6.28ZM82.2341 7.97778C79.6825 9.13207 77.6061 10.8266 76.0557 13.0592L79.3412 15.3408C80.4575 13.7334 81.9544 12.4946 83.8828 11.6222L82.2341 7.97778ZM76.0557 13.0592C74.449 15.3728 73.6984 18.1366 73.6984 21.24H77.6984C77.6984 18.7967 78.2812 16.8672 79.3412 15.3408L76.0557 13.0592ZM73.6984 21.24C73.6984 24.2828 74.4185 27.0057 75.9543 29.3094L79.2825 27.0906C78.2584 25.5543 77.6984 23.6372 77.6984 21.24H73.6984ZM75.991 29.3625C77.5439 31.5366 79.6168 33.1944 82.1541 34.3422L83.8028 30.6978C81.8601 29.819 80.3596 28.5968 79.2459 27.0375L75.991 29.3625ZM82.1906 34.3583C84.7116 35.4387 87.4915 35.96 90.4984 35.96V31.96C87.9587 31.96 85.7253 31.5213 83.7663 30.6817L82.1906 34.3583Z" fill="#C1C1C1" mask="url(#path-1-outside-1_1_3121)"/>
</svg>
