<svg width="109" height="96" viewBox="0 0 109 96" fill="none" xmlns="http://www.w3.org/2000/svg">
<mask id="path-1-outside-1_1_3116" maskUnits="userSpaceOnUse" x="0.0458984" y="31" width="82" height="59" fill="black">
<rect fill="white" x="0.0458984" y="31" width="82" height="59"/>
<path d="M2.33496 43.12V34.24H24.015V74H13.615V43.12H2.33496ZM58.3068 59.28V58.88C61.4535 58.9867 64.3335 59.2533 66.9468 59.68C69.6135 60.0533 71.9068 60.72 73.8268 61.68C75.7468 62.5867 77.2402 63.8667 78.3068 65.52C79.3735 67.1733 79.9068 69.28 79.9068 71.84C79.9068 74.8267 78.9468 77.4667 77.0268 79.76C75.1602 82.0533 72.4935 83.84 69.0268 85.12C65.5602 86.4533 61.4802 87.12 56.7868 87.12C52.2002 87.12 48.1735 86.4 44.7068 84.96C41.2935 83.5733 38.6802 81.6267 36.8668 79.12C35.0535 76.6667 34.2268 73.8133 34.3868 70.56H44.4668C44.5202 72.1067 45.0268 73.44 45.9868 74.56C47.0002 75.7333 48.4135 76.64 50.2268 77.28C52.0935 77.92 54.2802 78.24 56.7868 78.24C60.6802 78.24 63.6668 77.5733 65.7468 76.24C67.8268 74.9067 68.8668 72.9333 68.8668 70.32C68.8668 67.8133 67.6668 66.0533 65.2668 65.04C62.8668 63.9733 59.4802 63.44 55.1068 63.44H48.3068V55.44H55.1068C58.1468 55.44 60.6002 55.2533 62.4668 54.88C64.3868 54.4533 65.7735 53.7867 66.6268 52.88C67.5335 51.92 67.9868 50.6667 67.9868 49.12C67.9868 46.9333 67.1068 45.2267 65.3468 44C63.5868 42.72 60.7335 42.08 56.7868 42.08C53.0535 42.08 50.1735 42.7467 48.1468 44.08C46.1735 45.4133 45.1335 47.1733 45.0268 49.36H34.9468C34.7868 46.8533 35.2402 44.6133 36.3068 42.64C37.4268 40.6667 39.0002 38.9867 41.0268 37.6C43.1068 36.16 45.4802 35.0667 48.1468 34.32C50.8668 33.5733 53.7468 33.2 56.7868 33.2C61.3735 33.2 65.3202 33.7867 68.6268 34.96C71.9335 36.1333 74.4668 37.7867 76.2268 39.92C77.9868 42.0533 78.8668 44.5333 78.8668 47.36C78.8668 49.7067 78.3602 51.6533 77.3468 53.2C76.3335 54.6933 74.8935 55.8933 73.0268 56.8C71.1602 57.6533 68.9735 58.2667 66.4668 58.64C64.0135 59.0133 61.2935 59.2267 58.3068 59.28Z"/>
</mask>
<path d="M2.33496 43.12H0.334961V45.12H2.33496V43.12ZM2.33496 34.24V32.24H0.334961V34.24H2.33496ZM24.015 34.24H26.015V32.24H24.015V34.24ZM24.015 74V76H26.015V74H24.015ZM13.615 74H11.615V76H13.615V74ZM13.615 43.12H15.615V41.12H13.615V43.12ZM4.33496 43.12V34.24H0.334961V43.12H4.33496ZM2.33496 36.24H24.015V32.24H2.33496V36.24ZM22.015 34.24V74H26.015V34.24H22.015ZM24.015 72H13.615V76H24.015V72ZM15.615 74V43.12H11.615V74H15.615ZM13.615 41.12H2.33496V45.12H13.615V41.12ZM58.3068 59.28H56.3068V61.316L58.3425 61.2797L58.3068 59.28ZM58.3068 58.88L58.3746 56.8811L56.3068 56.8111V58.88H58.3068ZM66.9468 59.68L66.6246 61.6539L66.647 61.6575L66.6695 61.6607L66.9468 59.68ZM73.8268 61.68L72.9324 63.4689L72.9525 63.4789L72.9728 63.4885L73.8268 61.68ZM78.3068 65.52L79.9874 64.4357L78.3068 65.52ZM77.0268 79.76L75.4933 78.4761L75.4844 78.4867L75.4757 78.4975L77.0268 79.76ZM69.0268 85.12L68.3341 83.2438L68.3214 83.2485L68.3089 83.2533L69.0268 85.12ZM44.7068 84.96L45.474 83.113L45.4668 83.11L45.4596 83.1071L44.7068 84.96ZM36.8668 79.12L38.4873 77.9478L38.4813 77.9395L38.4752 77.9312L36.8668 79.12ZM34.3868 70.56V68.56H32.4828L32.3893 70.4618L34.3868 70.56ZM44.4668 70.56L46.4656 70.4911L46.3991 68.56H44.4668V70.56ZM45.9868 74.56L44.4683 75.8616L44.4732 75.8672L45.9868 74.56ZM50.2268 77.28L49.5612 79.166L49.5697 79.169L49.5782 79.1719L50.2268 77.28ZM65.7468 76.24L66.8262 77.9238L65.7468 76.24ZM65.2668 65.04L64.4546 66.8676L64.4717 66.8752L64.4889 66.8825L65.2668 65.04ZM48.3068 63.44H46.3068V65.44H48.3068V63.44ZM48.3068 55.44V53.44H46.3068V55.44H48.3068ZM62.4668 54.88L62.8591 56.8412L62.8799 56.837L62.9007 56.8324L62.4668 54.88ZM66.6268 52.88L65.1728 51.5068L65.1704 51.5093L66.6268 52.88ZM65.3468 44L64.1705 45.6175L64.1868 45.6293L64.2033 45.6408L65.3468 44ZM48.1468 44.08L47.0476 42.4092L47.0373 42.4159L47.0271 42.4228L48.1468 44.08ZM45.0268 49.36V51.36H46.9317L47.0245 49.4574L45.0268 49.36ZM34.9468 49.36L32.9509 49.4874L33.0704 51.36H34.9468V49.36ZM36.3068 42.64L34.5675 41.6528L34.5573 41.6708L34.5474 41.689L36.3068 42.64ZM41.0268 37.6L42.1562 39.2506L42.1653 39.2444L41.0268 37.6ZM48.1468 34.32L47.6174 32.3913L47.6076 32.3941L48.1468 34.32ZM68.6268 34.96L67.958 36.8449L68.6268 34.96ZM76.2268 39.92L77.7696 38.6472L76.2268 39.92ZM77.3468 53.2L79.0018 54.323L79.0109 54.3096L79.0198 54.2961L77.3468 53.2ZM73.0268 56.8L73.8584 58.6189L73.8796 58.6092L73.9007 58.599L73.0268 56.8ZM66.4668 58.64L66.1722 56.6618L66.166 56.6628L66.4668 58.64ZM60.3068 59.28V58.88H56.3068V59.28H60.3068ZM58.2391 60.8789C61.3159 60.9832 64.1094 61.2432 66.6246 61.6539L67.2691 57.7061C64.5576 57.2634 61.5911 56.9902 58.3746 56.8811L58.2391 60.8789ZM66.6695 61.6607C69.1737 62.0113 71.2485 62.6269 72.9324 63.4689L74.7213 59.8911C72.5652 58.8131 70.0533 58.0954 67.2241 57.6993L66.6695 61.6607ZM72.9728 63.4885C74.5829 64.2488 75.7781 65.2896 76.6262 66.6043L79.9874 64.4357C78.7022 62.4437 76.9108 60.9245 74.6809 59.8715L72.9728 63.4885ZM76.6262 66.6043C77.4301 67.8503 77.9068 69.5505 77.9068 71.84H81.9068C81.9068 69.0095 81.3169 66.4964 79.9874 64.4357L76.6262 66.6043ZM77.9068 71.84C77.9068 74.3565 77.1124 76.5422 75.4933 78.4761L78.5603 81.0439C80.7812 78.3912 81.9068 75.2968 81.9068 71.84H77.9068ZM75.4757 78.4975C73.8851 80.4516 71.5479 82.0572 68.3341 83.2438L69.7196 86.9962C73.4391 85.6228 76.4352 83.655 78.578 81.0225L75.4757 78.4975ZM68.3089 83.2533C65.1229 84.4787 61.2967 85.12 56.7868 85.12V89.12C61.6636 89.12 65.9975 88.428 69.7448 86.9867L68.3089 83.2533ZM56.7868 85.12C52.4066 85.12 48.65 84.4323 45.474 83.113L43.9396 86.807C47.697 88.3677 51.9937 89.12 56.7868 89.12V85.12ZM45.4596 83.1071C42.3266 81.8343 40.042 80.097 38.4873 77.9478L35.2464 80.2922C37.3183 83.1563 40.2604 85.3124 43.9541 86.8129L45.4596 83.1071ZM38.4752 77.9312C36.9556 75.8753 36.2454 73.4841 36.3844 70.6582L32.3893 70.4618C32.2082 74.1426 33.1514 77.458 35.2585 80.3088L38.4752 77.9312ZM34.3868 72.56H44.4668V68.56H34.3868V72.56ZM42.468 70.6289C42.5362 72.6051 43.1978 74.3793 44.4683 75.8616L47.5053 73.2584C46.8559 72.5007 46.5042 71.6083 46.4656 70.4911L42.468 70.6289ZM44.4732 75.8672C45.7626 77.3603 47.4977 78.4377 49.5612 79.166L50.8925 75.394C49.3293 74.8423 48.2377 74.1064 47.5005 73.2528L44.4732 75.8672ZM49.5782 79.1719C51.7013 79.8998 54.1163 80.24 56.7868 80.24V76.24C54.444 76.24 52.4857 75.9402 50.8755 75.3881L49.5782 79.1719ZM56.7868 80.24C60.8609 80.24 64.2882 79.5507 66.8262 77.9238L64.6675 74.5562C63.0455 75.596 60.4994 76.24 56.7868 76.24V80.24ZM66.8262 77.9238C69.5186 76.1979 70.8668 73.5675 70.8668 70.32H66.8668C66.8668 72.2992 66.1351 73.6155 64.6675 74.5562L66.8262 77.9238ZM70.8668 70.32C70.8668 68.7374 70.4835 67.2608 69.6193 65.9933C68.7587 64.7312 67.5196 63.8202 66.0448 63.1975L64.4889 66.8825C65.4141 67.2731 65.9749 67.7488 66.3144 68.2467C66.6502 68.7392 66.8668 69.3959 66.8668 70.32H70.8668ZM66.0791 63.2124C63.3081 61.9808 59.5978 61.44 55.1068 61.44V65.44C59.3625 65.44 62.4256 65.9659 64.4546 66.8676L66.0791 63.2124ZM55.1068 61.44H48.3068V65.44H55.1068V61.44ZM50.3068 63.44V55.44H46.3068V63.44H50.3068ZM48.3068 57.44H55.1068V53.44H48.3068V57.44ZM55.1068 57.44C58.2106 57.44 60.8103 57.2509 62.8591 56.8412L62.0746 52.9188C60.39 53.2558 58.0831 53.44 55.1068 53.44V57.44ZM62.9007 56.8324C65.0032 56.3652 66.838 55.5738 68.0832 54.2507L65.1704 51.5093C64.709 51.9995 63.7705 52.5415 62.033 52.9276L62.9007 56.8324ZM68.0809 54.2532C69.3975 52.8592 69.9868 51.0838 69.9868 49.12H65.9868C65.9868 50.2495 65.6695 50.9808 65.1728 51.5068L68.0809 54.2532ZM69.9868 49.12C69.9868 46.2943 68.7993 43.9684 66.4904 42.3592L64.2033 45.6408C65.4144 46.4849 65.9868 47.5723 65.9868 49.12H69.9868ZM66.5232 42.3825C64.2397 40.7218 60.8558 40.08 56.7868 40.08V44.08C60.6112 44.08 62.934 44.7182 64.1705 45.6175L66.5232 42.3825ZM56.7868 40.08C52.8581 40.08 49.5325 40.7743 47.0476 42.4092L49.2461 45.7508C50.8145 44.719 53.2489 44.08 56.7868 44.08V40.08ZM47.0271 42.4228C44.5849 44.0729 43.1696 46.3854 43.0292 49.2626L47.0245 49.4574C47.0974 47.9613 47.7621 46.7537 49.2666 45.7372L47.0271 42.4228ZM45.0268 47.36H34.9468V51.36H45.0268V47.36ZM36.9428 49.2326C36.8037 47.0543 37.1988 45.1957 38.0662 43.591L34.5474 41.689C33.2815 44.0309 32.7699 46.6524 32.9509 49.4874L36.9428 49.2326ZM38.0462 43.6272C39.0039 41.9399 40.3597 40.4798 42.1562 39.2506L39.8975 35.9494C37.6407 37.4935 35.8498 39.3935 34.5675 41.6528L38.0462 43.6272ZM42.1653 39.2444C44.0461 37.9423 46.2132 36.9383 48.6861 36.2459L47.6076 32.3941C44.7471 33.195 42.1676 34.3777 39.8884 35.9556L42.1653 39.2444ZM48.6763 36.2486C51.2109 35.5529 53.9119 35.2 56.7868 35.2V31.2C53.5818 31.2 50.5227 31.5938 47.6174 32.3913L48.6763 36.2486ZM56.7868 35.2C61.2118 35.2 64.9207 35.7671 67.958 36.8449L69.2957 33.0751C65.7197 31.8062 61.5352 31.2 56.7868 31.2V35.2ZM67.958 36.8449C71.0138 37.9292 73.2089 39.4046 74.6841 41.1928L77.7696 38.6472C75.7248 36.1687 72.8532 34.3375 69.2957 33.0751L67.958 36.8449ZM74.6841 41.1928C76.1415 42.9593 76.8668 44.9866 76.8668 47.36H80.8668C80.8668 44.08 79.8322 41.1474 77.7696 38.6472L74.6841 41.1928ZM76.8668 47.36C76.8668 49.4215 76.4231 50.9604 75.6739 52.1039L79.0198 54.2961C80.2972 52.3462 80.8668 49.9918 80.8668 47.36H76.8668ZM75.6919 52.077C74.9031 53.2394 73.7525 54.2241 72.153 55.001L73.9007 58.599C76.0345 57.5626 77.7639 56.1473 79.0018 54.323L75.6919 52.077ZM72.1953 54.981C70.5337 55.7406 68.535 56.3099 66.1722 56.6618L66.7615 60.6182C69.412 60.2234 71.7866 59.566 73.8584 58.6189L72.1953 54.981ZM66.166 56.6628C63.8159 57.0204 61.1862 57.2283 58.2711 57.2803L58.3425 61.2797C61.4008 61.2251 64.2111 61.0063 66.7677 60.6172L66.166 56.6628Z" fill="#C1C1C1" mask="url(#path-1-outside-1_1_3116)"/>
<path d="M87.7793 39.1433H106.179V42.9433H87.7793V39.1433ZM99.1393 33.5033V48.6233H94.8193V33.5033H99.1393Z" fill="#0D0D0D"/>
</svg>
