<svg width="158" height="96" viewBox="0 0 158 96" fill="none" xmlns="http://www.w3.org/2000/svg">
<mask id="path-1-outside-1_1_3124" maskUnits="userSpaceOnUse" x="1.25781" y="31" width="111" height="57" fill="black">
<rect fill="white" x="1.25781" y="31" width="111" height="57"/>
<path d="M24.3166 68.08C20.2099 68.08 16.5566 67.36 13.3566 65.92C10.2099 64.4267 7.75656 62.3733 5.99656 59.76C4.23656 57.1467 3.35656 54.08 3.35656 50.56C3.4099 46.9333 4.42323 43.8133 6.39656 41.2C8.3699 38.5867 11.2232 36.5867 14.9566 35.2C18.6899 33.76 23.1966 33.04 28.4766 33.04C33.8099 33.04 38.3699 33.7067 42.1566 35.04C45.9966 36.3733 48.9299 38.32 50.9566 40.88C53.0366 43.3867 54.0499 46.48 53.9966 50.16C53.9966 51.5467 53.7566 53.0133 53.2766 54.56C52.7966 56.1067 51.9699 57.7867 50.7966 59.6C50.6366 59.8667 50.1832 60.56 49.4366 61.68C48.7432 62.7467 47.8366 64.08 46.7166 65.68C45.6499 67.28 44.4766 69.0133 43.1966 70.88C41.9699 72.6933 40.7432 74.48 39.5166 76.24C38.2899 78.0533 37.1699 79.68 36.1566 81.12C35.1432 82.6133 34.3166 83.7867 33.6766 84.64C33.0899 85.5467 32.7966 86 32.7966 86H19.5966L46.5566 52.48L49.7566 50.08C47.6766 52.8533 45.6766 55.36 43.7566 57.6C41.8366 59.7867 39.9166 61.68 37.9966 63.28C36.0766 64.8267 33.9966 66.0267 31.7566 66.88C29.5166 67.68 27.0366 68.08 24.3166 68.08ZM28.4766 41.44C24.1032 41.44 20.6099 42.2133 17.9966 43.76C15.4366 45.3067 14.1299 47.6267 14.0766 50.72C14.0232 53.7067 15.2499 56.0267 17.7566 57.68C20.3166 59.28 23.7832 60.08 28.1566 60.08C32.7432 60.08 36.3966 59.2 39.1166 57.44C41.8899 55.68 43.3032 53.4133 43.3566 50.64C43.4099 48.6133 42.7966 46.9333 41.5166 45.6C40.2366 44.2133 38.4766 43.1733 36.2366 42.48C33.9966 41.7867 31.4099 41.44 28.4766 41.44ZM80.0978 68.08C75.9911 68.08 72.3378 67.36 69.1378 65.92C65.9911 64.4267 63.5378 62.3733 61.7778 59.76C60.0178 57.1467 59.1378 54.08 59.1378 50.56C59.1911 46.9333 60.2045 43.8133 62.1778 41.2C64.1511 38.5867 67.0045 36.5867 70.7378 35.2C74.4711 33.76 78.9778 33.04 84.2578 33.04C89.5911 33.04 94.1511 33.7067 97.9378 35.04C101.778 36.3733 104.711 38.32 106.738 40.88C108.818 43.3867 109.831 46.48 109.778 50.16C109.778 51.5467 109.538 53.0133 109.058 54.56C108.578 56.1067 107.751 57.7867 106.578 59.6C106.418 59.8667 105.964 60.56 105.218 61.68C104.524 62.7467 103.618 64.08 102.498 65.68C101.431 67.28 100.258 69.0133 98.9778 70.88C97.7511 72.6933 96.5245 74.48 95.2978 76.24C94.0711 78.0533 92.9511 79.68 91.9378 81.12C90.9245 82.6133 90.0978 83.7867 89.4578 84.64C88.8711 85.5467 88.5778 86 88.5778 86H75.3778L102.338 52.48L105.538 50.08C103.458 52.8533 101.458 55.36 99.5378 57.6C97.6178 59.7867 95.6978 61.68 93.7778 63.28C91.8578 64.8267 89.7778 66.0267 87.5378 66.88C85.2978 67.68 82.8178 68.08 80.0978 68.08ZM84.2578 41.44C79.8845 41.44 76.3911 42.2133 73.7778 43.76C71.2178 45.3067 69.9111 47.6267 69.8578 50.72C69.8045 53.7067 71.0311 56.0267 73.5378 57.68C76.0978 59.28 79.5645 60.08 83.9378 60.08C88.5245 60.08 92.1778 59.2 94.8978 57.44C97.6711 55.68 99.0845 53.4133 99.1378 50.64C99.1911 48.6133 98.5778 46.9333 97.2978 45.6C96.0178 44.2133 94.2578 43.1733 92.0178 42.48C89.7778 41.7867 87.1911 41.44 84.2578 41.44Z"/>
</mask>
<path d="M13.3566 65.92L12.4991 67.7269L12.5174 67.7355L12.5358 67.7438L13.3566 65.92ZM5.99656 59.76L4.33769 60.8772L5.99656 59.76ZM3.35656 50.56L1.35678 50.5306L1.35656 50.5453V50.56H3.35656ZM6.39656 41.2L4.80048 39.9948L6.39656 41.2ZM14.9566 35.2L15.6529 37.0748L15.6646 37.0705L15.6763 37.066L14.9566 35.2ZM42.1566 35.04L41.4923 36.9265L41.5005 36.9293L42.1566 35.04ZM50.9566 40.88L49.3885 42.1214L49.4028 42.1394L49.4174 42.1571L50.9566 40.88ZM53.9966 50.16L51.9968 50.131L51.9966 50.1455V50.16H53.9966ZM50.7966 59.6L49.1174 58.5135L49.099 58.542L49.0816 58.571L50.7966 59.6ZM49.4366 61.68L47.7725 60.5706L47.766 60.5803L47.7597 60.59L49.4366 61.68ZM46.7166 65.68L45.0781 64.5331L45.0651 64.5517L45.0525 64.5706L46.7166 65.68ZM43.1966 70.88L41.5471 69.7489L41.54 69.7594L43.1966 70.88ZM39.5166 76.24L37.8758 75.0964L37.8678 75.1078L37.86 75.1194L39.5166 76.24ZM36.1566 81.12L34.521 79.969L34.5112 79.9829L34.5016 79.997L36.1566 81.12ZM33.6766 84.64L32.0766 83.44L32.035 83.4954L31.9974 83.5535L33.6766 84.64ZM32.7966 86V88H33.8846L34.4757 87.0865L32.7966 86ZM19.5966 86L18.0381 84.7465L15.4213 88H19.5966V86ZM46.5566 52.48L45.3566 50.88L45.1556 51.0307L44.9981 51.2265L46.5566 52.48ZM49.7566 50.08L51.3566 51.28L48.5566 48.48L49.7566 50.08ZM43.7566 57.6L45.2594 58.9196L45.2673 58.9106L45.2751 58.9016L43.7566 57.6ZM37.9966 63.28L39.2512 64.8375L39.2642 64.8271L39.2769 64.8164L37.9966 63.28ZM31.7566 66.88L32.4292 68.7635L32.449 68.7564L32.4686 68.749L31.7566 66.88ZM17.9966 43.76L16.9779 42.0388L16.9701 42.0435L16.9623 42.0482L17.9966 43.76ZM14.0766 50.72L16.0762 50.7557L16.0763 50.7545L14.0766 50.72ZM17.7566 57.68L16.6554 59.3495L16.6758 59.363L16.6966 59.376L17.7566 57.68ZM39.1166 57.44L38.0449 55.7513L38.0375 55.7561L38.0301 55.7609L39.1166 57.44ZM43.3566 50.64L41.3573 50.5874L41.3571 50.5945L41.3569 50.6015L43.3566 50.64ZM41.5166 45.6L40.047 46.9566L40.0602 46.9709L40.0738 46.9851L41.5166 45.6ZM36.2366 42.48L36.8279 40.5694H36.8279L36.2366 42.48ZM24.3166 66.08C20.4451 66.08 17.079 65.4019 14.1773 64.0962L12.5358 67.7438C16.0341 69.3181 19.9747 70.08 24.3166 70.08V66.08ZM14.2141 64.1132C11.3564 62.757 9.19434 60.9278 7.65544 58.6428L4.33769 60.8772C6.31879 63.8188 9.0634 66.0964 12.4991 67.7269L14.2141 64.1132ZM7.65544 58.6428C6.14338 56.3976 5.35656 53.7304 5.35656 50.56H1.35656C1.35656 54.4296 2.32975 57.8957 4.33769 60.8772L7.65544 58.6428ZM5.35635 50.5894C5.40414 47.3396 6.30287 44.643 7.99265 42.4052L4.80048 39.9948C2.54359 42.9836 1.41565 46.5271 1.35678 50.5306L5.35635 50.5894ZM7.99265 42.4052C9.69073 40.1564 12.1994 38.3576 15.6529 37.0748L14.2602 33.3251C10.247 34.8158 7.04906 37.0169 4.80048 39.9948L7.99265 42.4052ZM15.6763 37.066C19.1196 35.7379 23.3683 35.04 28.4766 35.04V31.04C23.0248 31.04 18.2602 31.7821 14.2368 33.334L15.6763 37.066ZM28.4766 35.04C33.6535 35.04 37.9762 35.6884 41.4923 36.9265L42.8208 33.1535C38.7636 31.7249 33.9663 31.04 28.4766 31.04V35.04ZM41.5005 36.9293C45.069 38.1684 47.6498 39.9252 49.3885 42.1214L52.5247 39.6386C50.21 36.7148 46.9242 34.5783 42.8126 33.1507L41.5005 36.9293ZM49.4174 42.1571C51.1536 44.2495 52.0442 46.8615 51.9968 50.131L55.9964 50.189C56.0556 46.0985 54.9195 42.5239 52.4957 39.6029L49.4174 42.1571ZM51.9966 50.16C51.9966 51.3152 51.7966 52.5811 51.3664 53.9672L55.1867 55.1528C55.7165 53.4456 55.9966 51.7781 55.9966 50.16H51.9966ZM51.3664 53.9672C50.9551 55.2926 50.2224 56.8058 49.1174 58.5135L52.4757 60.6865C53.7174 58.7675 54.638 56.9207 55.1867 55.1528L51.3664 53.9672ZM49.0816 58.571C48.9519 58.7871 48.5304 59.4337 47.7725 60.5706L51.1007 62.7894C51.8361 61.6863 52.3212 60.9462 52.5116 60.629L49.0816 58.571ZM47.7597 60.59C47.0835 61.6302 46.1911 62.9431 45.0781 64.5331L48.355 66.8269C49.482 65.2169 50.4029 63.8631 51.1135 62.77L47.7597 60.59ZM45.0525 64.5706C43.9914 66.1622 42.823 67.8882 41.5471 69.7489L44.846 72.0111C46.1301 70.1384 47.3084 68.3978 48.3807 66.7894L45.0525 64.5706ZM41.54 69.7594C40.3184 71.5652 39.097 73.3442 37.8758 75.0964L41.1574 77.3836C42.3894 75.6158 43.6214 73.8215 44.8531 72.0006L41.54 69.7594ZM37.86 75.1194C36.6386 76.9249 35.5258 78.5411 34.521 79.969L37.7922 82.271C38.814 80.8189 39.9412 79.1818 41.1731 77.3606L37.86 75.1194ZM34.5016 79.997C33.4957 81.4794 32.6892 82.6232 32.0766 83.44L35.2766 85.84C35.944 84.9501 36.7908 83.7473 37.8115 82.243L34.5016 79.997ZM31.9974 83.5535C31.8561 83.7718 31.9233 83.6681 31.7912 83.8722C31.7285 83.9691 31.7588 83.9223 31.6984 84.0157C31.6063 84.158 31.7022 84.0098 31.6124 84.1485C31.5872 84.1875 31.5563 84.2353 31.5334 84.2707C31.4356 84.4218 31.5567 84.2347 31.4612 84.3822C31.4386 84.4172 31.4497 84.4 31.4277 84.434C31.4168 84.4508 31.4222 84.4425 31.4115 84.4589C31.401 84.4752 31.4142 84.4549 31.4036 84.4711C31.3984 84.4792 31.4049 84.4691 31.3997 84.4772C31.3991 84.4782 31.3984 84.4792 31.3978 84.4802C31.3972 84.4812 31.3965 84.4822 31.3959 84.4832C31.3952 84.4842 31.3946 84.4852 31.3939 84.4862C31.3933 84.4872 31.3926 84.4882 31.392 84.4891C31.3895 84.4931 31.3907 84.4911 31.3882 84.4951C31.3831 84.5029 31.3856 84.499 31.3806 84.5068C31.3707 84.5221 31.3756 84.5145 31.3658 84.5297C31.3466 84.5594 31.3561 84.5447 31.3374 84.5735C31.3041 84.625 31.2653 84.6849 31.2412 84.7222C31.2201 84.7548 31.2221 84.7517 31.2034 84.7807C31.1836 84.8113 31.1899 84.8015 31.1724 84.8285C31.1558 84.8542 31.1756 84.8236 31.1595 84.8484C31.1537 84.8574 31.1536 84.8576 31.1484 84.8657C31.1454 84.8703 31.1463 84.8689 31.1434 84.8733C31.1382 84.8814 31.144 84.8724 31.1389 84.8803C31.1252 84.9015 31.1443 84.8719 31.1312 84.8923C31.1174 84.9135 31.1323 84.8905 31.1209 84.9082C31.1162 84.9154 31.1224 84.9058 31.1183 84.9122C31.117 84.9141 31.1188 84.9114 31.1176 84.9132C31.1172 84.9138 31.1179 84.9128 31.1175 84.9134C31.1175 84.9134 31.1174 84.9135 31.1174 84.9135C31.1174 84.9135 31.1174 84.9135 31.1174 84.9135C31.1174 84.9135 31.1174 84.9135 32.7966 86C34.4757 87.0865 34.4757 87.0865 34.4757 87.0865C34.4757 87.0865 34.4757 87.0865 34.4757 87.0865C34.4757 87.0865 34.4757 87.0865 34.4757 87.0865C34.4757 87.0864 34.4757 87.0864 34.4758 87.0864C34.4758 87.0864 34.4758 87.0864 34.4758 87.0863C34.4759 87.0862 34.4758 87.0863 34.4759 87.0862C34.4759 87.0861 34.476 87.0861 34.476 87.0861C34.476 87.0861 34.476 87.086 34.476 87.086C34.4761 87.086 34.4761 87.0859 34.4761 87.0859C34.4761 87.0858 34.4762 87.0858 34.4762 87.0858C34.4771 87.0843 34.4754 87.087 34.4764 87.0855C34.4764 87.0854 34.4764 87.0854 34.4765 87.0853C34.4765 87.0853 34.4765 87.0852 34.4766 87.0852C34.4815 87.0775 34.4736 87.0897 34.4791 87.0812C34.485 87.0721 34.4813 87.0779 34.4895 87.0653C34.5073 87.0377 34.4788 87.0817 34.4972 87.0533C34.5012 87.0471 34.4975 87.0528 34.5017 87.0463C34.5081 87.0365 34.4965 87.0543 34.5029 87.0445C34.5031 87.0442 34.5033 87.0439 34.5035 87.0435C34.5037 87.0432 34.5039 87.0429 34.5041 87.0426C34.5085 87.0359 34.5023 87.0455 34.5066 87.0387C34.5746 86.9337 34.4493 87.1273 34.5178 87.0214C34.5277 87.0062 34.5203 87.0176 34.5307 87.0015C34.5741 86.9344 34.5159 87.0243 34.5616 86.9537C34.6137 86.8732 34.5451 86.9793 34.5995 86.8953C34.6322 86.8447 34.6091 86.8803 34.6441 86.8262C34.6781 86.7738 34.6163 86.8693 34.6502 86.8168C34.6672 86.7906 34.6394 86.8335 34.6564 86.8073C34.6569 86.8065 34.6574 86.8057 34.6579 86.8049C34.6585 86.804 34.659 86.8032 34.6595 86.8024C34.66 86.8016 34.6606 86.8008 34.6611 86.8C34.6616 86.7992 34.6621 86.7984 34.6627 86.7976C34.6632 86.7967 34.6637 86.7959 34.6643 86.7951C34.6648 86.7943 34.6653 86.7935 34.6659 86.7926C34.6782 86.7735 34.6567 86.8068 34.6691 86.7877C34.6754 86.7779 34.6757 86.7774 34.6822 86.7674C34.6827 86.7666 34.6833 86.7657 34.6838 86.7648C34.6844 86.764 34.685 86.7631 34.6855 86.7623C34.6924 86.7516 34.682 86.7677 34.6889 86.757C34.6894 86.7562 34.69 86.7553 34.6906 86.7544C34.6911 86.7535 34.6917 86.7527 34.6923 86.7518C34.6928 86.7509 34.6934 86.75 34.694 86.7492C34.6946 86.7483 34.6951 86.7474 34.6957 86.7465C34.7257 86.7001 34.6795 86.7715 34.7097 86.7249C34.7585 86.6495 34.6679 86.7894 34.7168 86.7139C34.7174 86.713 34.718 86.712 34.7186 86.7111C34.7192 86.7102 34.7198 86.7092 34.7204 86.7083C34.721 86.7074 34.7216 86.7064 34.7222 86.7055C34.7228 86.7046 34.7235 86.7036 34.7241 86.7027C34.7542 86.6562 34.7013 86.7379 34.7314 86.6913C34.7633 86.6421 34.707 86.7291 34.7389 86.6798C34.81 86.5699 34.6829 86.7663 34.7541 86.6562C34.8129 86.5653 34.7266 86.6988 34.7859 86.607C34.8721 86.474 34.7162 86.7148 34.8025 86.5815C34.8784 86.4642 34.7434 86.6728 34.8195 86.5553C34.8257 86.5456 34.8479 86.5114 34.8547 86.5008C34.9274 86.3885 34.8184 86.5569 34.8916 86.4437C34.9151 86.4074 34.8729 86.4727 34.8964 86.4364C34.9025 86.427 34.8951 86.4384 34.9011 86.429C34.9019 86.4278 34.9027 86.4265 34.9035 86.4253C34.9043 86.4241 34.9051 86.4228 34.9059 86.4216C34.9067 86.4203 34.9075 86.4191 34.9083 86.4179C34.9092 86.4166 34.91 86.4154 34.9108 86.4141C34.9346 86.3773 34.9063 86.421 34.9303 86.3839C34.9327 86.3802 34.9677 86.3261 34.9707 86.3215C34.9716 86.3202 34.9724 86.3188 34.9733 86.3175C34.9741 86.3162 34.975 86.3148 34.9759 86.3135C34.9767 86.3122 34.9776 86.3108 34.9785 86.3095C34.9793 86.3082 34.9802 86.3068 34.9811 86.3055C35.0038 86.2704 34.9636 86.3326 34.9863 86.2974C34.9997 86.2767 34.9781 86.31 34.9915 86.2893C35.0069 86.2656 34.9868 86.2967 35.0021 86.2729C35.0271 86.2344 34.9825 86.3032 35.0075 86.2647C35.0083 86.2633 35.0092 86.2619 35.0101 86.2606C35.011 86.2592 35.0119 86.2578 35.0128 86.2564C35.0392 86.2157 34.9918 86.2889 35.0182 86.2481C35.0254 86.2369 35.0164 86.2509 35.0236 86.2397C35.0683 86.1706 34.9898 86.2921 35.0345 86.2229C35.0727 86.1639 35.0073 86.265 35.0455 86.2059C35.0464 86.2044 35.0474 86.203 35.0483 86.2016C35.0492 86.2002 35.0501 86.1987 35.0511 86.1973C35.0555 86.1905 35.0522 86.1955 35.0566 86.1887C35.079 86.1542 35.0455 86.2059 35.0679 86.1713C35.1237 86.085 35.0233 86.2402 35.0792 86.1538C35.1399 86.0601 35.0414 86.2123 35.1022 86.1183C35.1366 86.0651 35.1144 86.0994 35.1495 86.0452C35.1753 86.0053 35.1296 86.0759 35.1555 86.0359C35.1713 86.0115 35.1457 86.051 35.1615 86.0266C35.1626 86.025 35.1636 86.0234 35.1646 86.0219C35.1656 86.0203 35.1666 86.0187 35.1676 86.0172C35.185 85.9903 35.1564 86.0346 35.1737 86.0077C35.246 85.896 35.126 86.0815 35.1984 85.9696C35.2287 85.9228 35.2183 85.9388 35.2491 85.8912C35.2934 85.8229 35.3092 85.7984 35.3557 85.7265L31.9974 83.5535ZM32.7966 84H19.5966V88H32.7966V84ZM21.155 87.2535L48.115 53.7335L44.9981 51.2265L18.0381 84.7465L21.155 87.2535ZM47.7566 54.08L50.9566 51.68L48.5566 48.48L45.3566 50.88L47.7566 54.08ZM48.1566 48.88C46.0983 51.6244 44.1254 54.0965 42.238 56.2984L45.2751 58.9016C47.2277 56.6235 49.2549 54.0822 51.3566 51.28L48.1566 48.88ZM42.2537 56.2804C40.3913 58.4015 38.5448 60.2197 36.7162 61.7436L39.2769 64.8164C41.2883 63.1403 43.2818 61.1719 45.2594 58.9196L42.2537 56.2804ZM36.7419 61.7225C34.9806 63.1413 33.0829 64.2345 31.0446 65.011L32.4686 68.749C34.9103 67.8188 37.1725 66.512 39.2512 64.8375L36.7419 61.7225ZM31.0839 64.9965C29.0884 65.7092 26.8398 66.08 24.3166 66.08V70.08C27.2334 70.08 29.9448 69.6508 32.4292 68.7635L31.0839 64.9965ZM28.4766 39.44C23.8935 39.44 20.0064 40.2465 16.9779 42.0388L19.0152 45.4812C21.2133 44.1802 24.313 43.44 28.4766 43.44V39.44ZM16.9623 42.0482C13.7892 43.9652 12.1416 46.9329 12.0769 50.6855L16.0763 50.7545C16.1182 48.3204 17.0839 46.6481 19.0308 45.4718L16.9623 42.0482ZM12.0769 50.6843C12.0112 54.3601 13.5807 57.3215 16.6554 59.3495L18.8578 56.0105C16.9191 54.7318 16.0352 53.0532 16.0762 50.7557L12.0769 50.6843ZM16.6966 59.376C19.6866 61.2448 23.5673 62.08 28.1566 62.08V58.08C23.9992 58.08 20.9465 57.3152 18.8166 55.984L16.6966 59.376ZM28.1566 62.08C32.9755 62.08 37.0511 61.1587 40.2031 59.1191L38.0301 55.7609C35.742 57.2413 32.511 58.08 28.1566 58.08V62.08ZM40.1882 59.1287C43.4076 57.0856 45.2874 54.2539 45.3562 50.6785L41.3569 50.6015C41.319 52.5728 40.3722 54.2744 38.0449 55.7513L40.1882 59.1287ZM45.3559 50.6926C45.4218 48.1886 44.6472 45.9732 42.9593 44.2149L40.0738 46.9851C40.9459 47.8935 41.398 49.038 41.3573 50.5874L45.3559 50.6926ZM42.9862 44.2434C41.4158 42.5422 39.3235 41.3419 36.8279 40.5694L35.6452 44.3906C37.6296 45.0048 39.0573 45.8844 40.047 46.9566L42.9862 44.2434ZM36.8279 40.5694C34.3554 39.8041 31.5624 39.44 28.4766 39.44V43.44C31.2574 43.44 33.6377 43.7692 35.6452 44.3906L36.8279 40.5694ZM69.1378 65.92L68.2803 67.7269L68.2986 67.7355L68.3171 67.7438L69.1378 65.92ZM61.7778 59.76L60.1189 60.8772L61.7778 59.76ZM59.1378 50.56L57.138 50.5306L57.1378 50.5453V50.56H59.1378ZM62.1778 41.2L60.5817 39.9948L62.1778 41.2ZM70.7378 35.2L71.4342 37.0748L71.4459 37.0705L71.4576 37.066L70.7378 35.2ZM97.9378 35.04L97.2736 36.9265L97.2818 36.9293L97.9378 35.04ZM106.738 40.88L105.17 42.1214L105.184 42.1394L105.199 42.1571L106.738 40.88ZM109.778 50.16L107.778 50.131L107.778 50.1455V50.16H109.778ZM106.578 59.6L104.899 58.5135L104.88 58.542L104.863 58.571L106.578 59.6ZM105.218 61.68L103.554 60.5706L103.547 60.5803L103.541 60.59L105.218 61.68ZM102.498 65.68L100.859 64.5331L100.846 64.5517L100.834 64.5706L102.498 65.68ZM98.9778 70.88L97.3283 69.7489L97.3213 69.7594L98.9778 70.88ZM95.2978 76.24L93.657 75.0964L93.6491 75.1078L93.6413 75.1194L95.2978 76.24ZM91.9378 81.12L90.3022 79.969L90.2924 79.9829L90.2829 79.997L91.9378 81.12ZM89.4578 84.64L87.8578 83.44L87.8163 83.4954L87.7787 83.5535L89.4578 84.64ZM88.5778 86V88H89.6659L90.257 87.0865L88.5778 86ZM75.3778 86L73.8193 84.7465L71.2026 88H75.3778V86ZM102.338 52.48L101.138 50.88L100.937 51.0307L100.779 51.2265L102.338 52.48ZM105.538 50.08L107.138 51.28L104.338 48.48L105.538 50.08ZM99.5378 57.6L101.041 58.9196L101.049 58.9106L101.056 58.9016L99.5378 57.6ZM93.7778 63.28L95.0325 64.8375L95.0454 64.8271L95.0582 64.8164L93.7778 63.28ZM87.5378 66.88L88.2105 68.7635L88.2302 68.7564L88.2498 68.749L87.5378 66.88ZM73.7778 43.76L72.7592 42.0388L72.7514 42.0435L72.7436 42.0482L73.7778 43.76ZM69.8578 50.72L71.8575 50.7557L71.8575 50.7545L69.8578 50.72ZM73.5378 57.68L72.4366 59.3495L72.4571 59.363L72.4778 59.376L73.5378 57.68ZM94.8978 57.44L93.8262 55.7513L93.8187 55.7561L93.8113 55.7609L94.8978 57.44ZM99.1378 50.64L97.1385 50.5874L97.1383 50.5945L97.1382 50.6015L99.1378 50.64ZM97.2978 45.6L95.8282 46.9566L95.8415 46.9709L95.855 46.9851L97.2978 45.6ZM92.0178 42.48L92.6092 40.5694L92.0178 42.48ZM80.0978 66.08C76.2264 66.08 72.8603 65.4019 69.9585 64.0962L68.3171 67.7438C71.8154 69.3181 75.7559 70.08 80.0978 70.08V66.08ZM69.9953 64.1132C67.1376 62.757 64.9756 60.9278 63.4367 58.6428L60.1189 60.8772C62.1 63.8188 64.8447 66.0964 68.2803 67.7269L69.9953 64.1132ZM63.4367 58.6428C61.9246 56.3976 61.1378 53.7304 61.1378 50.56H57.1378C57.1378 54.4296 58.111 57.8957 60.1189 60.8772L63.4367 58.6428ZM61.1376 50.5894C61.1854 47.3396 62.0841 44.643 63.7739 42.4052L60.5817 39.9948C58.3248 42.9836 57.1969 46.5271 57.138 50.5306L61.1376 50.5894ZM63.7739 42.4052C65.472 40.1564 67.9807 38.3576 71.4342 37.0748L70.0414 33.3251C66.0283 34.8158 62.8303 37.0169 60.5817 39.9948L63.7739 42.4052ZM71.4576 37.066C74.9008 35.7379 79.1496 35.04 84.2578 35.04V31.04C78.806 31.04 74.0414 31.7821 70.0181 33.334L71.4576 37.066ZM84.2578 35.04C89.4347 35.04 93.7575 35.6884 97.2736 36.9265L98.6021 33.1535C94.5448 31.7249 89.7476 31.04 84.2578 31.04V35.04ZM97.2818 36.9293C100.85 38.1684 103.431 39.9252 105.17 42.1214L108.306 39.6386C105.991 36.7148 102.705 34.5783 98.5938 33.1507L97.2818 36.9293ZM105.199 42.1571C106.935 44.2495 107.825 46.8615 107.778 50.131L111.778 50.189C111.837 46.0985 110.701 42.5239 108.277 39.6029L105.199 42.1571ZM107.778 50.16C107.778 51.3152 107.578 52.5811 107.148 53.9672L110.968 55.1528C111.498 53.4456 111.778 51.7781 111.778 50.16H107.778ZM107.148 53.9672C106.736 55.2926 106.004 56.8058 104.899 58.5135L108.257 60.6865C109.499 58.7675 110.419 56.9207 110.968 55.1528L107.148 53.9672ZM104.863 58.571C104.733 58.7871 104.312 59.4337 103.554 60.5706L106.882 62.7894C107.617 61.6863 108.102 60.9462 108.293 60.629L104.863 58.571ZM103.541 60.59C102.865 61.6302 101.972 62.9431 100.859 64.5331L104.136 66.8269C105.263 65.2169 106.184 63.8631 106.895 62.77L103.541 60.59ZM100.834 64.5706C99.7726 66.1622 98.6043 67.8882 97.3284 69.7489L100.627 72.0111C101.911 70.1384 103.09 68.3978 104.162 66.7894L100.834 64.5706ZM97.3213 69.7594C96.0997 71.5652 94.8783 73.3442 93.657 75.0964L96.9386 77.3836C98.1707 75.6158 99.4026 73.8215 100.634 72.0006L97.3213 69.7594ZM93.6413 75.1194C92.4199 76.9249 91.307 78.5411 90.3022 79.969L93.5734 82.271C94.5953 80.8189 95.7224 79.1818 96.9544 77.3606L93.6413 75.1194ZM90.2829 79.997C89.277 81.4794 88.4704 82.6232 87.8578 83.44L91.0578 85.84C91.7252 84.9501 92.572 83.7473 93.5928 82.243L90.2829 79.997ZM87.7787 83.5535C87.6374 83.7718 87.7045 83.6681 87.5724 83.8722C87.5097 83.9691 87.54 83.9223 87.4796 84.0157C87.3876 84.158 87.4834 84.0098 87.3937 84.1485C87.3685 84.1875 87.3375 84.2353 87.3146 84.2707C87.2168 84.4218 87.3379 84.2347 87.2424 84.3822C87.2198 84.4172 87.2309 84.4 87.2089 84.434C87.1981 84.4508 87.2035 84.4425 87.1928 84.4589C87.1823 84.4752 87.1954 84.4549 87.1849 84.4711C87.1797 84.4792 87.1862 84.4691 87.181 84.4772C87.1803 84.4782 87.1797 84.4792 87.179 84.4802C87.1784 84.4812 87.1778 84.4822 87.1771 84.4832C87.1765 84.4842 87.1758 84.4852 87.1752 84.4862C87.1745 84.4872 87.1739 84.4882 87.1733 84.4891C87.1707 84.4931 87.172 84.4911 87.1694 84.4951C87.1644 84.5029 87.1669 84.499 87.1619 84.5068C87.1519 84.5221 87.1568 84.5145 87.147 84.5297C87.1278 84.5594 87.1373 84.5447 87.1187 84.5735C87.0853 84.625 87.0466 84.6849 87.0224 84.7222C87.0014 84.7548 87.0034 84.7517 86.9846 84.7807C86.9648 84.8113 86.9712 84.8015 86.9537 84.8285C86.937 84.8542 86.9568 84.8236 86.9408 84.8484C86.935 84.8574 86.9349 84.8576 86.9296 84.8657C86.9266 84.8703 86.9275 84.8689 86.9247 84.8733C86.9194 84.8814 86.9253 84.8724 86.9202 84.8803C86.9064 84.9015 86.9256 84.8719 86.9124 84.8923C86.8987 84.9135 86.9136 84.8905 86.9021 84.9082C86.8974 84.9154 86.9036 84.9058 86.8995 84.9122C86.8983 84.9141 86.9 84.9114 86.8989 84.9132C86.8985 84.9138 86.8991 84.9128 86.8987 84.9134C86.8987 84.9134 86.8987 84.9135 86.8987 84.9135C86.8987 84.9135 86.8987 84.9135 86.8987 84.9135C86.8987 84.9135 86.8987 84.9135 88.5778 86C90.257 87.0865 90.257 87.0865 90.257 87.0865C90.257 87.0865 90.257 87.0865 90.257 87.0865C90.257 87.0865 90.257 87.0865 90.257 87.0865C90.257 87.0864 90.257 87.0864 90.257 87.0864C90.257 87.0864 90.257 87.0864 90.2571 87.0863C90.2572 87.0862 90.257 87.0863 90.2572 87.0862C90.2572 87.0861 90.2572 87.0861 90.2572 87.0861C90.2572 87.0861 90.2573 87.086 90.2573 87.086C90.2573 87.086 90.2573 87.0859 90.2574 87.0859C90.2574 87.0858 90.2574 87.0858 90.2574 87.0858C90.2584 87.0843 90.2567 87.087 90.2576 87.0855C90.2576 87.0854 90.2577 87.0854 90.2577 87.0853C90.2577 87.0853 90.2578 87.0852 90.2578 87.0852C90.2628 87.0775 90.2549 87.0897 90.2604 87.0812C90.2663 87.0721 90.2625 87.0779 90.2707 87.0653C90.2885 87.0377 90.2601 87.0817 90.2784 87.0533C90.2825 87.0471 90.2788 87.0528 90.283 87.0463C90.2893 87.0365 90.2778 87.0543 90.2841 87.0445C90.2843 87.0442 90.2845 87.0439 90.2848 87.0435C90.285 87.0432 90.2852 87.0429 90.2854 87.0426C90.2897 87.0359 90.2835 87.0455 90.2879 87.0387C90.3558 86.9337 90.2305 87.1273 90.2991 87.0214C90.3089 87.0062 90.3015 87.0176 90.312 87.0015C90.3554 86.9344 90.2972 87.0243 90.3429 86.9537C90.395 86.8732 90.3263 86.9793 90.3807 86.8953C90.4134 86.8447 90.3904 86.8803 90.4254 86.8262C90.4593 86.7738 90.3975 86.8693 90.4315 86.8168C90.4484 86.7906 90.4206 86.8335 90.4376 86.8073C90.4382 86.8065 90.4387 86.8057 90.4392 86.8049C90.4397 86.804 90.4402 86.8032 90.4408 86.8024C90.4413 86.8016 90.4418 86.8008 90.4423 86.8C90.4429 86.7992 90.4434 86.7984 90.4439 86.7976C90.4445 86.7967 90.445 86.7959 90.4455 86.7951C90.446 86.7943 90.4466 86.7935 90.4471 86.7926C90.4595 86.7735 90.4379 86.8068 90.4503 86.7877C90.4566 86.7779 90.457 86.7774 90.4634 86.7674C90.464 86.7666 90.4645 86.7657 90.4651 86.7648C90.4656 86.764 90.4662 86.7631 90.4668 86.7623C90.4737 86.7516 90.4632 86.7677 90.4701 86.757C90.4707 86.7562 90.4713 86.7553 90.4718 86.7544C90.4724 86.7535 90.473 86.7527 90.4735 86.7518C90.4741 86.7509 90.4747 86.75 90.4752 86.7492C90.4758 86.7483 90.4764 86.7474 90.477 86.7465C90.507 86.7001 90.4608 86.7715 90.4909 86.7249C90.5397 86.6495 90.4492 86.7894 90.4981 86.7139C90.4987 86.713 90.4993 86.712 90.4999 86.7111C90.5005 86.7102 90.5011 86.7092 90.5017 86.7083C90.5023 86.7074 90.5029 86.7064 90.5035 86.7055C90.5041 86.7046 90.5047 86.7036 90.5053 86.7027C90.5354 86.6562 90.4825 86.7379 90.5127 86.6913C90.5445 86.6421 90.4882 86.7291 90.5201 86.6798C90.5912 86.5699 90.4642 86.7663 90.5354 86.6562C90.5942 86.5653 90.5078 86.6988 90.5672 86.607C90.6533 86.474 90.4975 86.7148 90.5837 86.5815C90.6596 86.4642 90.5246 86.6728 90.6007 86.5553C90.607 86.5456 90.6291 86.5114 90.6359 86.5008C90.7086 86.3885 90.5996 86.5569 90.6729 86.4437C90.6964 86.4074 90.6541 86.4727 90.6776 86.4364C90.6837 86.427 90.6763 86.4384 90.6824 86.429C90.6832 86.4278 90.684 86.4265 90.6848 86.4253C90.6856 86.4241 90.6864 86.4228 90.6872 86.4216C90.688 86.4203 90.6888 86.4191 90.6896 86.4179C90.6904 86.4166 90.6912 86.4154 90.692 86.4141C90.7159 86.3773 90.6876 86.421 90.7116 86.3839C90.714 86.3802 90.749 86.3261 90.752 86.3215C90.7528 86.3202 90.7537 86.3188 90.7545 86.3175C90.7554 86.3162 90.7563 86.3148 90.7571 86.3135C90.758 86.3122 90.7589 86.3108 90.7597 86.3095C90.7606 86.3082 90.7615 86.3068 90.7623 86.3055C90.785 86.2704 90.7448 86.3326 90.7675 86.2974C90.7809 86.2767 90.7594 86.31 90.7728 86.2893C90.7881 86.2656 90.768 86.2967 90.7834 86.2729C90.8083 86.2344 90.7638 86.3032 90.7887 86.2647C90.7896 86.2633 90.7905 86.2619 90.7914 86.2606C90.7923 86.2592 90.7932 86.2578 90.7941 86.2564C90.8204 86.2157 90.7731 86.2889 90.7994 86.2481C90.8067 86.2369 90.7976 86.2509 90.8049 86.2397C90.8496 86.1706 90.771 86.2921 90.8158 86.2229C90.854 86.1639 90.7885 86.265 90.8268 86.2059C90.8277 86.2044 90.8286 86.203 90.8295 86.2016C90.8305 86.2002 90.8314 86.1987 90.8323 86.1973C90.8367 86.1905 90.8335 86.1955 90.8379 86.1887C90.8602 86.1542 90.8267 86.2059 90.8491 86.1713C90.905 86.085 90.8045 86.2402 90.8605 86.1538C90.9211 86.0601 90.8226 86.2123 90.8834 86.1183C90.9179 86.0651 90.8957 86.0994 90.9307 86.0452C90.9566 86.0053 90.9109 86.0759 90.9367 86.0359C90.9525 86.0115 90.927 86.051 90.9428 86.0266C90.9438 86.025 90.9448 86.0234 90.9458 86.0219C90.9468 86.0203 90.9479 86.0187 90.9489 86.0172C90.9662 85.9903 90.9376 86.0346 90.955 86.0077C91.0273 85.896 90.9072 86.0815 90.9797 85.9696C91.0099 85.9228 90.9996 85.9388 91.0304 85.8912C91.0746 85.8229 91.0905 85.7984 91.137 85.7265L87.7787 83.5535ZM88.5778 84H75.3778V88H88.5778V84ZM76.9363 87.2535L103.896 53.7335L100.779 51.2265L73.8193 84.7465L76.9363 87.2535ZM103.538 54.08L106.738 51.68L104.338 48.48L101.138 50.88L103.538 54.08ZM103.938 48.88C101.88 51.6244 99.9067 54.0965 98.0193 56.2984L101.056 58.9016C103.009 56.6235 105.036 54.0822 107.138 51.28L103.938 48.88ZM98.0349 56.2804C96.1725 58.4015 94.3261 60.2197 92.4974 61.7436L95.0582 64.8164C97.0696 63.1403 99.0631 61.1719 101.041 58.9196L98.0349 56.2804ZM92.5232 61.7225C90.7619 63.1413 88.8641 64.2345 86.8258 65.011L88.2498 68.749C90.6915 67.8188 92.9538 66.512 95.0325 64.8375L92.5232 61.7225ZM86.8651 64.9965C84.8696 65.7092 82.621 66.08 80.0978 66.08V70.08C83.0146 70.08 85.726 69.6508 88.2105 68.7635L86.8651 64.9965ZM84.2578 39.44C79.6747 39.44 75.7877 40.2465 72.7592 42.0388L74.7965 45.4812C76.9946 44.1802 80.0942 43.44 84.2578 43.44V39.44ZM72.7436 42.0482C69.5705 43.9652 67.9228 46.9329 67.8581 50.6855L71.8575 50.7545C71.8995 48.3204 72.8651 46.6481 74.812 45.4718L72.7436 42.0482ZM67.8581 50.6843C67.7925 54.3601 69.3619 57.3215 72.4366 59.3495L74.639 56.0105C72.7004 54.7318 71.8165 53.0532 71.8575 50.7557L67.8581 50.6843ZM72.4778 59.376C75.4678 61.2448 79.3485 62.08 83.9378 62.08V58.08C79.7804 58.08 76.7278 57.3152 74.5978 55.984L72.4778 59.376ZM83.9378 62.08C88.7567 62.08 92.8323 61.1587 95.9843 59.1191L93.8113 55.7609C91.5233 57.2413 88.2922 58.08 83.9378 58.08V62.08ZM95.9695 59.1287C99.1888 57.0856 101.069 54.2539 101.137 50.6785L97.1382 50.6015C97.1003 52.5728 96.1535 54.2744 93.8262 55.7513L95.9695 59.1287ZM101.137 50.6926C101.203 48.1886 100.428 45.9732 98.7406 44.2149L95.855 46.9851C96.7271 47.8935 97.1793 49.038 97.1385 50.5874L101.137 50.6926ZM98.7674 44.2434C97.1971 42.5422 95.1048 41.3419 92.6092 40.5694L91.4264 44.3906C93.4108 45.0048 94.8386 45.8844 95.8282 46.9566L98.7674 44.2434ZM92.6092 40.5694C90.1366 39.8041 87.3436 39.44 84.2578 39.44V43.44C87.0387 43.44 89.419 43.7692 91.4264 44.3906L92.6092 40.5694Z" fill="#C1C1C1" mask="url(#path-1-outside-1_1_3124)"/>
<path d="M128.33 47.3089C126.81 47.3089 125.477 47.0422 124.33 46.5089C123.21 45.9756 122.343 45.2156 121.73 44.2289C121.117 43.2422 120.81 42.0689 120.81 40.7089C120.81 38.6022 121.49 36.9756 122.85 35.8289C124.21 34.6556 126.037 34.0689 128.33 34.0689C130.623 34.0689 132.437 34.6556 133.77 35.8289C135.13 36.9756 135.81 38.6022 135.81 40.7089C135.81 42.0689 135.503 43.2422 134.89 44.2289C134.277 45.2156 133.41 45.9756 132.29 46.5089C131.17 47.0422 129.85 47.3089 128.33 47.3089ZM128.33 44.0289C129.343 44.0289 130.157 43.7356 130.77 43.1489C131.41 42.5356 131.73 41.7222 131.73 40.7089C131.73 39.6689 131.41 38.8556 130.77 38.2689C130.157 37.6556 129.343 37.3489 128.33 37.3489C127.29 37.3489 126.45 37.6556 125.81 38.2689C125.197 38.8556 124.89 39.6689 124.89 40.7089C124.89 41.7222 125.197 42.5356 125.81 43.1489C126.45 43.7356 127.29 44.0289 128.33 44.0289ZM148.09 61.1089C145.797 61.1089 143.97 60.5356 142.61 59.3889C141.25 58.2156 140.57 56.5889 140.57 54.5089C140.57 52.4289 141.25 50.8022 142.61 49.6289C143.97 48.4556 145.797 47.8689 148.09 47.8689C150.357 47.8689 152.157 48.4556 153.49 49.6289C154.85 50.8022 155.53 52.4289 155.53 54.5089C155.53 56.5889 154.85 58.2156 153.49 59.3889C152.157 60.5356 150.357 61.1089 148.09 61.1089ZM148.09 57.8289C149.103 57.8289 149.917 57.5356 150.53 56.9489C151.17 56.3622 151.49 55.5489 151.49 54.5089C151.49 53.4956 151.17 52.6822 150.53 52.0689C149.917 51.4556 149.103 51.1489 148.09 51.1489C147.05 51.1489 146.21 51.4556 145.57 52.0689C144.957 52.6556 144.65 53.4689 144.65 54.5089C144.65 55.5489 144.957 56.3622 145.57 56.9489C146.21 57.5356 147.05 57.8289 148.09 57.8289ZM144.09 33.1889L146.25 34.3889L130.97 61.9889L128.89 60.7089L144.09 33.1889Z" fill="#0D0D0D"/>
</svg>
