<svg width="78" height="79" viewBox="0 0 78 79" fill="none" xmlns="http://www.w3.org/2000/svg">
<path d="M33.0577 57.7799C31.1338 60.0292 28.6751 61.7584 25.9078 62.8085C23.1405 63.8585 20.1535 64.1957 17.2218 63.7889C14.2901 63.3821 11.5077 62.2445 9.13085 60.4807C6.75399 58.7169 4.85894 56.3835 3.62011 53.6955C2.38128 51.0074 1.83846 48.0509 2.04162 45.098C2.24478 42.1452 3.18739 39.2909 4.78269 36.7978C6.37799 34.3047 8.57475 32.2529 11.1708 30.8312C13.7668 29.4095 16.6787 28.6637 19.6385 28.6622C21.0245 28.6695 22.4054 28.8298 23.7562 29.1402C22.0121 26.3523 21.0943 23.1271 21.1091 19.8387C21.1091 15.1584 22.9684 10.6698 26.2778 7.36035C29.5873 4.05089 34.0759 2.19165 38.7562 2.19165C43.4365 2.19165 47.9251 4.05089 51.2346 7.36035C54.544 10.6698 56.4033 15.1584 56.4033 19.8387C56.4181 23.1271 55.5003 26.3523 53.7562 29.1402C55.107 28.8298 56.4879 28.6695 57.8738 28.6622C60.8337 28.6637 63.7456 29.4095 66.3416 30.8312C68.9377 32.2529 71.1344 34.3047 72.7297 36.7978C74.325 39.2909 75.2676 42.1452 75.4708 45.098C75.6739 48.0509 75.1311 51.0074 73.8923 53.6955C72.6535 56.3835 70.7584 58.7169 68.3815 60.4807C66.0047 62.2445 63.2223 63.3821 60.2906 63.7889C57.3589 64.1957 54.3719 63.8585 51.6046 62.8085C48.8373 61.7584 46.3786 60.0292 44.4547 57.7799L50.5209 77.1917H26.9915L33.0577 57.7799Z" stroke="white" stroke-width="3" stroke-linecap="round" stroke-linejoin="round"/>
</svg>
