<svg width="62" height="79" viewBox="0 0 62 79" fill="none" xmlns="http://www.w3.org/2000/svg">
<path d="M16.4218 77.1917H45.2649M30.8433 65.6544V45.4643M30.8433 45.4643L19.3061 33.9271M30.8433 45.4643L42.3806 33.9271M13.0688 53.7567C9.63503 51.0867 6.85394 47.6703 4.93625 43.7662C3.01855 39.8621 2.01455 35.5727 2.00031 31.2231C1.9282 15.5757 14.511 2.56029 30.1583 2.19976C36.2142 2.0562 42.1615 3.82291 47.1568 7.24933C52.1521 10.6757 55.9419 15.5879 57.9886 21.2892C60.0353 26.9905 60.2351 33.1915 58.5596 39.0127C56.8841 44.8339 53.4184 49.9798 48.6539 53.7206C47.6014 54.5342 46.7489 55.5776 46.1615 56.7711C45.5741 57.9646 45.2674 59.2767 45.2649 60.6069V62.7701C45.2649 63.5351 44.961 64.2687 44.4201 64.8096C43.8792 65.3506 43.1455 65.6544 42.3806 65.6544H19.3061C18.5412 65.6544 17.8075 65.3506 17.2666 64.8096C16.7257 64.2687 16.4218 63.5351 16.4218 62.7701V60.6069C16.4128 59.2867 16.1067 57.9854 15.5263 56.7995C14.9458 55.6137 14.1059 54.5737 13.0688 53.7567Z" stroke="white" stroke-width="3" stroke-linecap="round" stroke-linejoin="round"/>
</svg>
