<svg width="114" height="79" viewBox="0 0 114 79" fill="none" xmlns="http://www.w3.org/2000/svg">
<path d="M57.2138 77.1916C64.7908 77.1916 77.3401 77.0969 91.7362 68.7623C106.132 60.4277 110.821 50.0568 112.289 44.7055C112.424 44.2235 112.461 43.7192 112.398 43.2226C112.334 42.7259 112.172 42.2471 111.92 41.8143C111.669 41.3815 111.333 41.0037 110.932 40.7031C110.532 40.4026 110.075 40.1855 109.589 40.0647C106.132 39.1649 100.071 38.3599 92.3045 40.2067M57.2138 77.1916C49.6369 77.1916 37.0876 77.0496 22.6914 68.7623C8.29527 60.475 3.60704 50.0568 2.13901 44.7055C2.0038 44.2235 1.96673 43.7192 2.02998 43.2226C2.09323 42.7259 2.25551 42.2471 2.50723 41.8143C2.75894 41.3815 3.09496 41.0037 3.49537 40.7031C3.89578 40.4026 4.35244 40.1855 4.83829 40.0647C8.29527 39.1649 14.3568 38.3599 22.1232 40.1594M57.2138 77.1916C57.2138 77.1916 76.1562 66.8681 76.1562 39.307C76.1562 17.7127 64.5066 6.72618 59.4869 2.93771C58.8281 2.45306 58.0317 2.19165 57.2138 2.19165C56.396 2.19165 55.5995 2.45306 54.9408 2.93771C49.921 6.72618 38.2715 17.7127 38.2715 39.307C38.2715 66.8681 57.2138 77.1916 57.2138 77.1916ZM57.2138 77.1916C62.8965 75.9604 78.1925 67.3416 87.3795 51.4301C96.5665 35.5185 94.2934 22.8745 92.4939 17.3339C92.2187 16.4428 91.6166 15.6888 90.8085 15.2233C90.0004 14.7577 89.0461 14.6151 88.1372 14.824C82.6999 16.0417 77.6135 18.4878 73.2675 21.9748M57.2138 77.1916C51.5311 75.9604 36.2352 67.2943 27.0482 51.4301C17.8611 35.5659 20.1342 22.8745 21.9337 17.3339C22.209 16.4428 22.8111 15.6888 23.6192 15.2233C24.4273 14.7577 25.3816 14.6151 26.2905 14.824C31.7278 16.0417 36.8142 18.4878 41.1602 21.9748" stroke="white" stroke-width="3" stroke-linecap="round" stroke-linejoin="round"/>
</svg>
