<svg width="116" height="79" viewBox="0 0 116 79" fill="none" xmlns="http://www.w3.org/2000/svg">
<path d="M100.358 39.4063L112.202 33.5084C112.66 33.2801 113.067 32.9625 113.401 32.5744C113.734 32.1863 113.986 31.7355 114.142 31.2485C114.299 30.7615 114.356 30.2482 114.311 29.7387C114.266 29.2292 114.12 28.7338 113.881 28.2817L102.085 5.69684C101.624 4.80926 100.831 4.13977 99.8793 3.83436C98.9271 3.52895 97.8928 3.6124 97.0019 4.06651L85.0142 10.0604M100.358 39.4063L85.0142 10.0604M100.358 39.4063L92.6863 48.4211M85.0142 10.0604L65.4982 10.0604C65.0001 10.0586 64.5065 10.1551 64.0457 10.3444C63.5849 10.5336 63.166 10.8119 62.8129 11.1632L44.0162 29.9121C43.6324 30.3061 43.3366 30.7771 43.1485 31.294C42.9604 31.8108 42.8843 32.3618 42.9251 32.9103C42.9659 33.4588 43.1227 33.9924 43.3852 34.4758C43.6477 34.9591 44.0099 35.3812 44.4477 35.7141L47.0371 37.6801C49.6962 39.6648 52.9255 40.737 56.2436 40.737C59.5618 40.737 62.7911 39.6648 65.4502 37.6801L71.5879 33.0768L92.6863 48.4211M15.9649 38.9268L4.12101 32.9809C3.66498 32.7574 3.25854 32.4445 2.92587 32.0608C2.59319 31.677 2.34108 31.2303 2.18451 30.7472C2.02794 30.2641 1.97012 29.7544 2.01448 29.2485C2.05884 28.7426 2.20448 28.2507 2.44273 27.8022L14.2387 5.21733C14.7001 4.33039 15.4896 3.65865 16.439 3.34517C17.3883 3.0317 18.4226 3.10126 19.3215 3.53905L31.3092 9.53292L15.9649 38.9268ZM15.9649 38.9268L42.194 59.4019C42.6032 59.7347 43.0766 59.9795 43.5846 60.1211L71.3961 67.074C72.0397 67.213 72.7074 67.194 73.3421 67.0187C73.9768 66.8433 74.5595 66.5168 75.0404 66.067L92.6863 48.4211M31.5969 9.53292L56.1957 2.34028C57.0697 2.08963 58.0044 2.1576 58.833 2.53208L75.424 10.0604M50.4895 77.1917L36.0563 73.5474C35.4682 73.4145 34.9236 73.134 34.4739 72.7322L23.637 63.3338" stroke="white" stroke-width="3" stroke-linecap="round" stroke-linejoin="round"/>
</svg>
