<svg width="1747" height="467" viewBox="0 0 1747 467" fill="none" xmlns="http://www.w3.org/2000/svg">
<path d="M1735.54 315.079L1728.21 317.685L1731.55 324.712L1724.53 321.372L1721.92 328.702L1719.31 321.372L1712.29 324.712L1715.63 317.685L1708.3 315.079L1715.63 312.472L1712.29 305.445L1719.31 308.785L1721.92 301.455L1724.53 308.785L1731.55 305.445L1728.21 312.472L1735.54 315.079Z" fill="#D4D4D4"/>
<path d="M24.9443 312.554L18.4123 314.877L21.3886 321.138L15.1273 318.162L12.8044 324.694L10.4815 318.162L4.22013 321.138L7.19645 314.877L0.664419 312.554L7.19645 310.231L4.22013 303.97L10.4815 306.946L12.8044 300.414L15.1273 306.946L21.3886 303.97L18.4123 310.231L24.9443 312.554Z" fill="#D4D4D4"/>
<path d="M1746.37 51.1693L1739.3 53.6831L1742.52 60.4592L1735.74 57.2382L1733.23 64.3073L1730.71 57.2382L1723.94 60.4592L1727.16 53.6831L1720.09 51.1693L1727.16 48.6554L1723.94 41.8793L1730.71 45.1003L1733.23 38.0312L1735.74 45.1003L1742.52 41.8793L1739.3 48.6554L1746.37 51.1693Z" fill="#1C1C1C"/>
<path d="M1490.93 56.2308L1482.9 59.0883L1486.56 66.7907L1478.86 63.1294L1476 71.1648L1473.14 63.1294L1465.44 66.7907L1469.1 59.0883L1461.07 56.2308L1469.1 53.3733L1465.44 45.6709L1473.14 49.3322L1476 41.2969L1478.86 49.3322L1486.56 45.6709L1482.9 53.3733L1490.93 56.2308Z" fill="#D5D5D5"/>
<path d="M289.794 80.9769L282.373 83.6157L285.755 90.7288L278.641 87.3476L276.003 94.7682L273.364 87.3476L266.251 90.7288L269.632 83.6157L262.211 80.9769L269.632 78.338L266.251 71.2249L273.364 74.6061L276.003 67.1855L278.641 74.6061L285.755 71.2249L282.373 78.338L289.794 80.9769Z" fill="#D4D4D4"/>
<path d="M64.2803 23.0609L52.199 27.3571L57.7038 38.9378L46.1231 33.433L41.8268 45.5143L37.5306 33.433L25.9499 38.9378L31.4547 27.3571L19.3734 23.0609L31.4547 18.7646L25.9499 7.18388L37.5306 12.6887L41.8268 0.607421L46.1231 12.6887L57.7038 7.18388L52.199 18.7646L64.2803 23.0609Z" fill="#1C1C1C"/>
<path d="M1537.33 439.401L1529.77 442.088L1533.21 449.331L1525.97 445.888L1523.28 453.444L1520.6 445.888L1513.35 449.331L1516.8 442.088L1509.24 439.401L1516.8 436.714L1513.35 429.471L1520.6 432.914L1523.28 425.357L1525.97 432.914L1533.21 429.471L1529.77 436.714L1537.33 439.401Z" fill="#1C1C1C"/>
<path d="M226.25 451.274L217.906 454.242L221.708 462.239L213.71 458.438L210.743 466.781L207.776 458.438L199.778 462.239L203.58 454.242L195.236 451.274L203.58 448.307L199.778 440.309L207.776 444.111L210.743 435.768L213.71 444.111L221.708 440.309L217.906 448.307L226.25 451.274Z" fill="#030211"/>
</svg>
