<svg width="816" height="525" viewBox="0 0 816 525" fill="none" xmlns="http://www.w3.org/2000/svg">
<path d="M403.17 9.25282L407.101 7.85473L405.31 4.08616L409.079 5.87754L410.477 1.94606L411.875 5.87754L415.643 4.08616L413.852 7.85473L417.783 9.25282L413.852 10.6509L415.643 14.4195L411.875 12.6281L410.477 16.5596L409.079 12.6281L405.31 14.4195L407.101 10.6509L403.17 9.25282Z" fill="white"/>
<path d="M535.648 7.79115L539.58 6.39306L537.789 2.62449L541.557 4.41587L542.955 0.484394L544.353 4.41587L548.122 2.62449L546.33 6.39306L550.262 7.79115L546.33 9.18923L548.122 12.9578L544.353 11.1664L542.955 15.0979L541.557 11.1664L537.789 12.9578L539.58 9.18923L535.648 7.79115Z" fill="#353535"/>
<path d="M668.127 9.98426L672.058 8.58618L670.267 4.81761L674.036 6.60898L675.434 2.67751L676.832 6.60898L680.6 4.81761L678.809 8.58618L682.74 9.98426L678.809 11.3823L680.6 15.1509L676.832 13.3595L675.434 17.291L674.036 13.3595L670.267 15.1509L672.058 11.3823L668.127 9.98426Z" fill="#353535"/>
<path d="M800.605 7.79115L804.537 6.39306L802.746 2.62449L806.514 4.41587L807.912 0.484394L809.31 4.41587L813.079 2.62449L811.288 6.39306L815.219 7.79115L811.288 9.18923L813.079 12.9578L809.31 11.1664L807.912 15.0979L806.514 11.1664L802.746 12.9578L804.537 9.18923L800.605 7.79115Z" fill="white"/>
<path d="M0.459961 422.751L4.39143 421.353L2.60006 417.584L6.36863 419.376L7.76671 415.444L9.1648 419.376L12.9334 417.584L11.142 421.353L15.0735 422.751L11.142 424.149L12.9334 427.918L9.1648 426.126L7.76671 430.058L6.36863 426.126L2.60006 427.918L4.39143 424.149L0.459961 422.751Z" fill="#353535"/>
<path d="M132.938 421.289L136.87 419.891L135.079 416.123L138.847 417.914L140.245 413.982L141.643 417.914L145.412 416.123L143.621 419.891L147.552 421.289L143.621 422.687L145.412 426.456L141.643 424.664L140.245 428.596L138.847 424.664L135.079 426.456L136.87 422.687L132.938 421.289Z" fill="white"/>
<path d="M265.417 423.482L269.348 422.084L267.557 418.316L271.326 420.107L272.724 416.176L274.122 420.107L277.89 418.316L276.099 422.084L280.03 423.482L276.099 424.88L277.89 428.649L274.122 426.858L272.724 430.789L271.326 426.858L267.557 428.649L269.348 424.88L265.417 423.482Z" fill="white"/>
<path d="M397.896 421.289L401.827 419.891L400.036 416.123L403.804 417.914L405.202 413.982L406.6 417.914L410.369 416.123L408.578 419.891L412.509 421.289L408.578 422.687L410.369 426.456L406.6 424.664L405.202 428.596L403.804 424.664L400.036 426.456L401.827 422.687L397.896 421.289Z" fill="#353535"/>
<path d="M461.182 101.464L465.113 100.066L463.322 96.2973L467.09 98.0887L468.488 94.1572L469.886 98.0887L473.655 96.2973L471.864 100.066L475.795 101.464L471.864 102.862L473.655 106.631L469.886 104.839L468.488 108.771L467.09 104.839L463.322 106.631L465.113 102.862L461.182 101.464Z" fill="#353535"/>
<path d="M593.66 103.657L597.592 102.259L595.8 98.4905L599.569 100.282L600.967 96.3504L602.365 100.282L606.134 98.4905L604.342 102.259L608.274 103.657L604.342 105.055L606.134 108.824L602.365 107.032L600.967 110.964L599.569 107.032L595.8 108.824L597.592 105.055L593.66 103.657Z" fill="white"/>
<path d="M726.139 101.464L730.07 100.066L728.279 96.2973L732.047 98.0887L733.445 94.1572L734.844 98.0887L738.612 96.2973L736.821 100.066L740.752 101.464L736.821 102.862L738.612 106.631L734.844 104.839L733.445 108.771L732.047 104.839L728.279 106.631L730.07 102.862L726.139 101.464Z" fill="#353535"/>
<path d="M58.4707 514.961L62.4022 513.563L60.6108 509.794L64.3794 511.586L65.7775 507.654L67.1755 511.586L70.9441 509.794L69.1527 513.563L73.0842 514.961L69.1527 516.359L70.9441 520.128L67.1755 518.336L65.7775 522.268L64.3794 518.336L60.6108 520.128L62.4022 516.359L58.4707 514.961Z" fill="white"/>
<path d="M190.949 517.154L194.881 515.756L193.089 511.988L196.858 513.779L198.256 509.847L199.654 513.779L203.423 511.988L201.631 515.756L205.563 517.154L201.631 518.552L203.423 522.321L199.654 520.529L198.256 524.461L196.858 520.529L193.089 522.321L194.881 518.552L190.949 517.154Z" fill="#353535"/>
<path d="M323.428 514.961L327.359 513.563L325.568 509.794L329.336 511.586L330.734 507.654L332.133 511.586L335.901 509.794L334.11 513.563L338.041 514.961L334.11 516.359L335.901 520.128L332.133 518.336L330.734 522.268L329.336 518.336L325.568 520.128L327.359 516.359L323.428 514.961Z" fill="white"/>
</svg>
