<svg width="39" height="36" viewBox="0 0 39 36" fill="none" xmlns="http://www.w3.org/2000/svg">
<path d="M11.7609 0L14.9949 3.234C13.4269 5.978 12.0549 8.722 10.8789 11.466C9.70292 14.112 9.01692 16.709 8.82092 19.257L16.1709 20.874V35.133H0.294922V24.843C0.294922 18.767 1.47092 13.867 3.82292 10.143C6.27292 6.321 8.91892 2.94 11.7609 0ZM33.8109 0L37.0449 3.234C35.4769 5.978 34.1049 8.722 32.9289 11.466C31.7529 14.112 31.0669 16.709 30.8709 19.257L38.2209 20.874V35.133H22.3449V24.843C22.3449 18.767 23.5209 13.867 25.8729 10.143C28.3229 6.321 30.9689 2.94 33.8109 0Z" fill="#030211"/>
</svg>
