<svg width="19" height="19" fill="none" xmlns="http://www.w3.org/2000/svg"><path d="M17.088.508H2.438c-.801 0-1.5.576-1.5 1.367v14.683c0 .796.699 1.504 1.5 1.504h14.646c.805 0 1.408-.713 1.408-1.504V1.875c.005-.791-.603-1.367-1.404-1.367zM6.38 15.14H3.864V7.321H6.38v7.82zm-1.17-9.008H5.19c-.805 0-1.326-.599-1.326-1.349 0-.763.534-1.349 1.357-1.349s1.327.581 1.345 1.35c0 .75-.522 1.348-1.358 1.348zM15.57 15.14h-2.515v-4.275c0-1.024-.366-1.724-1.276-1.724-.695 0-1.106.47-1.29.928-.068.165-.086.389-.086.618v4.453H7.888V7.321h2.515V8.41c.366-.52.938-1.27 2.268-1.27 1.65 0 2.9 1.087 2.9 3.433v4.568z" fill="#030211"/></svg>