<svg width="19" height="18" fill="none" xmlns="http://www.w3.org/2000/svg"><path d="M12.805 2.082a3.83 3.83 0 0 1 2.643 1.058 3.545 3.545 0 0 1 1.1 2.544v7.202a3.545 3.545 0 0 1-1.1 2.544 3.83 3.83 0 0 1-2.643 1.058H5.32a3.83 3.83 0 0 1-2.643-1.058 3.545 3.545 0 0 1-1.1-2.543V5.683a3.545 3.545 0 0 1 1.1-2.544A3.83 3.83 0 0 1 5.32 2.082h7.485zm0-1.44H5.32C2.438.642.08 2.91.08 5.684v7.202c0 2.774 2.358 5.043 5.24 5.043h7.485c2.882 0 5.24-2.27 5.24-5.042V5.683c0-2.773-2.358-5.042-5.24-5.042z" fill="#030211"/><path d="M13.928 5.684c-.222 0-.44-.063-.624-.182a1.09 1.09 0 0 1-.414-.485 1.043 1.043 0 0 1-.063-.624c.043-.21.15-.402.307-.553.157-.151.357-.254.575-.296.218-.041.443-.02.649.062.205.081.38.22.503.398a1.052 1.052 0 0 1-.139 1.365 1.158 1.158 0 0 1-.795.316zm-4.866.72c.593 0 1.172.17 1.664.486.492.317.876.767 1.103 1.293.226.527.286 1.106.17 1.665a2.848 2.848 0 0 1-.82 1.475 3.032 3.032 0 0 1-1.532.789 3.103 3.103 0 0 1-1.73-.164 2.973 2.973 0 0 1-1.344-1.062 2.804 2.804 0 0 1-.505-1.6c.001-.764.317-1.497.878-2.037a3.058 3.058 0 0 1 2.116-.845zm0-1.44c-.888 0-1.756.253-2.495.728a4.362 4.362 0 0 0-1.654 1.94 4.17 4.17 0 0 0-.255 2.497 4.274 4.274 0 0 0 1.229 2.213 4.549 4.549 0 0 0 2.3 1.182 4.656 4.656 0 0 0 2.594-.246 4.459 4.459 0 0 0 2.016-1.591c.493-.711.757-1.547.757-2.401a4.24 4.24 0 0 0-1.316-3.056 4.582 4.582 0 0 0-3.176-1.266z" fill="#030211"/></svg>