<svg width="51" height="51" fill="none" xmlns="http://www.w3.org/2000/svg"><path d="M24.456 1.047c.328-.856 1.54-.856 1.867 0l3.108 8.111a1 1 0 0 0 1.526.448l6.999-5.143c.739-.544 1.758.111 1.57 1.01l-1.77 8.503a1 1 0 0 0 1.041 1.201l8.669-.543c.915-.057 1.419 1.045.776 1.7l-6.087 6.195a1 1 0 0 0 .226 1.574l7.586 4.23c.801.447.629 1.646-.266 1.849l-8.47 1.921a1 1 0 0 0-.66 1.447l4.094 7.66c.432.809-.36 1.724-1.223 1.411l-8.165-2.963a1 1 0 0 0-1.337.86l-.697 8.658c-.073.914-1.236 1.255-1.792.526l-5.266-6.907a1 1 0 0 0-1.59 0l-5.267 6.907c-.556.73-1.719.388-1.792-.526l-.696-8.658a1 1 0 0 0-1.338-.86l-8.165 2.963c-.862.313-1.655-.602-1.223-1.411l4.095-7.66a1 1 0 0 0-.66-1.447l-8.471-1.921C.183 29.979.01 28.78.812 28.333l7.586-4.23a1 1 0 0 0 .226-1.574l-6.087-6.196c-.642-.654-.14-1.756.776-1.698l8.669.543a1 1 0 0 0 1.041-1.203l-1.77-8.503c-.188-.898.832-1.553 1.57-1.01l7 5.144a1 1 0 0 0 1.526-.448l3.107-8.111z" fill="#030211"/></svg>