<svg width="40" height="39" viewBox="0 0 40 39" fill="none" xmlns="http://www.w3.org/2000/svg">
<path d="M19.2103 0.803948C19.6106 0.288577 20.3894 0.288578 20.7897 0.803949L22.4694 2.96617C22.7799 3.36585 23.34 3.47055 23.7739 3.21002L26.1212 1.80058C26.6807 1.46463 27.4068 1.74594 27.594 2.37113L28.3792 4.99411C28.5243 5.47896 29.0088 5.77893 29.5075 5.69274L32.2054 5.22642C32.8485 5.11527 33.424 5.6399 33.3727 6.29048L33.1573 9.01996C33.1175 9.52449 33.4609 9.97923 33.957 10.079L36.6412 10.6188C37.281 10.7475 37.6282 11.4445 37.3453 12.0326L36.1584 14.5C35.939 14.9561 36.095 15.5042 36.5216 15.7764L38.8296 17.2494C39.3797 17.6005 39.4515 18.3759 38.9753 18.8221L36.9773 20.6941C36.608 21.0402 36.5554 21.6076 36.8548 22.0156L38.4749 24.2228C38.861 24.7489 38.6479 25.4979 38.0426 25.742L35.5033 26.7658C35.0339 26.9551 34.7799 27.4651 34.9117 27.9538L35.625 30.5972C35.795 31.2273 35.3257 31.8487 34.6732 31.8576L31.9355 31.895C31.4294 31.9019 31.0083 32.2858 30.9547 32.789L30.6649 35.5116C30.5958 36.1606 29.9337 36.5705 29.3221 36.3431L26.7557 35.389C26.2813 35.2126 25.75 35.4185 25.5182 35.8684L24.2645 38.3024C23.9656 38.8826 23.2002 39.0257 22.7119 38.5926L20.6635 36.7759C20.2849 36.4401 19.7151 36.4401 19.3365 36.7759L17.2881 38.5926C16.7998 39.0257 16.0344 38.8826 15.7355 38.3024L14.4818 35.8684C14.25 35.4185 13.7187 35.2126 13.2443 35.389L10.678 36.3431C10.0663 36.5705 9.40418 36.1606 9.3351 35.5116L9.04528 32.789C8.99171 32.2858 8.5706 31.9019 8.06455 31.895L5.32683 31.8576C4.67428 31.8487 4.205 31.2273 4.37501 30.5972L5.08827 27.9538C5.22011 27.4651 4.96612 26.9551 4.49674 26.7658L1.95739 25.742C1.35213 25.4979 1.13902 24.7489 1.52516 24.2228L3.14518 22.0156C3.44463 21.6076 3.39205 21.0402 3.02273 20.6941L1.02471 18.8221C0.548475 18.3759 0.620328 17.6005 1.17044 17.2494L3.47842 15.7764C3.90504 15.5042 4.06098 14.9561 3.8416 14.5L2.65475 12.0326C2.37186 11.4445 2.71897 10.7475 3.35876 10.6188L6.043 10.079C6.53916 9.97923 6.88256 9.52449 6.84275 9.01996L6.62736 6.29048C6.57602 5.6399 7.1515 5.11527 7.79457 5.22642L10.4925 5.69274C10.9912 5.77893 11.4757 5.47895 11.6209 4.99411L12.406 2.37113C12.5932 1.74594 13.3193 1.46463 13.8788 1.80058L16.2261 3.21002C16.66 3.47055 17.2201 3.36584 17.5306 2.96617L19.2103 0.803948Z" fill="#030211"/>
</svg>
