<svg width="1196" height="347" viewBox="0 0 1196 347" fill="none" xmlns="http://www.w3.org/2000/svg">
<path d="M1094.14 13.4091L1088.27 15.4979L1090.94 21.1282L1085.31 18.4518L1083.23 24.3255L1081.14 18.4518L1075.51 21.1282L1078.18 15.4979L1072.31 13.4091L1078.18 11.3203L1075.51 5.69002L1081.14 8.36636L1083.23 2.49268L1085.31 8.36636L1090.94 5.69002L1088.27 11.3203L1094.14 13.4091Z" fill="#1C1C1C"/>
<path d="M896.216 13.9545L890.343 16.0433L893.019 21.6736L887.389 18.9972L885.3 24.8709L883.211 18.9972L877.581 21.6736L880.257 16.0433L874.383 13.9545L880.257 11.8657L877.581 6.23543L883.211 8.91177L885.3 3.03809L887.389 8.91177L893.019 6.23543L890.343 11.8657L896.216 13.9545Z" fill="#1C1C1C"/>
<path d="M698.292 12.3163L692.418 14.4051L695.094 20.0354L689.464 17.359L687.375 23.2327L685.286 17.359L679.656 20.0354L682.332 14.4051L676.459 12.3163L682.332 10.2275L679.656 4.59724L685.286 7.27359L687.375 1.3999L689.464 7.27359L695.094 4.59725L692.418 10.2276L698.292 12.3163Z" fill="#1C1C1C"/>
<path d="M500.367 14.5014L494.493 16.5901L497.17 22.2204L491.54 19.5441L489.451 25.4178L487.362 19.5441L481.732 22.2204L484.408 16.5901L478.534 14.5014L484.408 12.4126L481.732 6.7823L487.362 9.45865L489.451 3.58496L491.54 9.45865L497.17 6.7823L494.493 12.4126L500.367 14.5014Z" fill="#1C1C1C"/>
<path d="M302.441 11.225L296.568 13.3138L299.244 18.9441L293.614 16.2677L291.525 22.1414L289.436 16.2677L283.806 18.9441L286.482 13.3138L280.609 11.225L286.482 9.13624L283.806 3.50594L289.436 6.18228L291.525 0.308593L293.614 6.18228L299.244 3.50594L296.568 9.13624L302.441 11.225Z" fill="#1C1C1C"/>
<path d="M104.517 14.5014L98.6429 16.5901L101.319 22.2204L95.689 19.5441L93.6002 25.4178L91.5114 19.5441L85.8811 22.2204L88.5575 16.5901L82.6838 14.5014L88.5575 12.4126L85.8811 6.7823L91.5114 9.45865L93.6002 3.58496L95.689 9.45865L101.319 6.7823L98.6429 12.4126L104.517 14.5014Z" fill="#1C1C1C"/>
<path d="M1094.14 334.377L1088.27 336.466L1090.94 342.096L1085.31 339.42L1083.23 345.294L1081.14 339.42L1075.51 342.096L1078.18 336.466L1072.31 334.377L1078.18 332.289L1075.51 326.658L1081.14 329.335L1083.23 323.461L1085.31 329.335L1090.94 326.658L1088.27 332.289L1094.14 334.377Z" fill="#1C1C1C"/>
<path d="M896.216 334.923L890.343 337.012L893.019 342.642L887.389 339.965L885.3 345.839L883.211 339.965L877.581 342.642L880.257 337.012L874.383 334.923L880.257 332.834L877.581 327.204L883.211 329.88L885.3 324.006L887.389 329.88L893.019 327.204L890.343 332.834L896.216 334.923Z" fill="#1C1C1C"/>
<path d="M698.292 333.285L692.418 335.373L695.094 341.004L689.464 338.327L687.375 344.201L685.286 338.327L679.656 341.004L682.332 335.373L676.459 333.285L682.332 331.196L679.656 325.566L685.286 328.242L687.375 322.368L689.464 328.242L695.094 325.566L692.418 331.196L698.292 333.285Z" fill="#1C1C1C"/>
<path d="M500.367 335.47L494.493 337.558L497.17 343.189L491.54 340.512L489.451 346.386L487.362 340.512L481.732 343.189L484.408 337.558L478.534 335.47L484.408 333.381L481.732 327.751L487.362 330.427L489.451 324.553L491.54 330.427L497.17 327.751L494.493 333.381L500.367 335.47Z" fill="#1C1C1C"/>
<path d="M302.441 332.193L296.568 334.282L299.244 339.912L293.614 337.236L291.525 343.11L289.436 337.236L283.806 339.912L286.482 334.282L280.609 332.193L286.482 330.105L283.806 324.474L289.436 327.151L291.525 321.277L293.614 327.151L299.244 324.474L296.568 330.105L302.441 332.193Z" fill="#1C1C1C"/>
<path d="M104.517 335.47L98.6429 337.558L101.319 343.189L95.689 340.512L93.6002 346.386L91.5114 340.512L85.8811 343.189L88.5575 337.558L82.6838 335.47L88.5575 333.381L85.8811 327.751L91.5114 330.427L93.6002 324.553L95.689 330.427L101.319 327.751L98.6429 333.381L104.517 335.47Z" fill="#1C1C1C"/>
<path d="M1095.81 175.448L1089.94 177.536L1092.62 183.167L1086.98 180.49L1084.9 186.364L1082.81 180.49L1077.18 183.167L1079.85 177.536L1073.98 175.448L1079.85 173.359L1077.18 167.729L1082.81 170.405L1084.9 164.531L1086.98 170.405L1092.62 167.729L1089.94 173.359L1095.81 175.448Z" fill="#1C1C1C"/>
<path d="M897.887 175.993L892.014 178.082L894.69 183.712L889.06 181.036L886.971 186.909L884.882 181.036L879.252 183.712L881.928 178.082L876.054 175.993L881.928 173.904L879.252 168.274L884.882 170.95L886.971 165.077L889.06 170.95L894.69 168.274L892.014 173.904L897.887 175.993Z" fill="#1C1C1C"/>
<path d="M699.962 174.355L694.089 176.444L696.765 182.074L691.135 179.398L689.046 185.271L686.957 179.398L681.327 182.074L684.003 176.444L678.13 174.355L684.003 172.266L681.327 166.636L686.957 169.312L689.046 163.438L691.135 169.312L696.765 166.636L694.089 172.266L699.962 174.355Z" fill="#1C1C1C"/>
<path d="M502.037 176.54L496.163 178.629L498.84 184.259L493.209 181.583L491.121 187.456L489.032 181.583L483.402 184.259L486.078 178.629L480.204 176.54L486.078 174.451L483.402 168.821L489.032 171.497L491.121 165.624L493.209 171.497L498.84 168.821L496.163 174.451L502.037 176.54Z" fill="#1C1C1C"/>
<path d="M304.112 173.264L298.239 175.352L300.915 180.983L295.285 178.306L293.196 184.18L291.107 178.306L285.477 180.983L288.153 175.352L282.279 173.264L288.153 171.175L285.477 165.545L291.107 168.221L293.196 162.347L295.285 168.221L300.915 165.545L298.239 171.175L304.112 173.264Z" fill="#1C1C1C"/>
<path d="M106.187 176.54L100.314 178.629L102.99 184.259L97.3599 181.583L95.2711 187.456L93.1823 181.583L87.552 184.259L90.2284 178.629L84.3547 176.54L90.2284 174.451L87.552 168.821L93.1823 171.497L95.2711 165.624L97.3599 171.497L102.99 168.821L100.314 174.451L106.187 176.54Z" fill="#1C1C1C"/>
<path d="M1193.58 92.4482L1187.71 94.5369L1190.38 100.167L1184.75 97.4909L1182.66 103.365L1180.58 97.4909L1174.95 100.167L1177.62 94.5369L1171.75 92.4482L1177.62 90.3594L1174.95 84.7291L1180.58 87.4054L1182.66 81.5317L1184.75 87.4054L1190.38 84.7291L1187.71 90.3594L1193.58 92.4482Z" fill="#1C1C1C"/>
<path d="M995.656 92.9936L989.782 95.0823L992.458 100.713L986.828 98.0363L984.739 103.91L982.651 98.0363L977.02 100.713L979.697 95.0823L973.823 92.9936L979.697 90.9048L977.02 85.2745L982.651 87.9508L984.739 82.0771L986.828 87.9508L992.458 85.2745L989.782 90.9048L995.656 92.9936Z" fill="#1C1C1C"/>
<path d="M797.73 91.3559L791.857 93.4446L794.533 99.0749L788.903 96.3986L786.814 102.272L784.725 96.3986L779.095 99.0749L781.771 93.4446L775.898 91.3559L781.771 89.2671L779.095 83.6368L784.725 86.3131L786.814 80.4395L788.903 86.3131L794.533 83.6368L791.857 89.2671L797.73 91.3559Z" fill="#1C1C1C"/>
<path d="M599.806 93.5404L593.932 95.6292L596.608 101.26L590.978 98.5832L588.889 104.457L586.8 98.5832L581.17 101.26L583.847 95.6292L577.973 93.5404L583.847 91.4517L581.17 85.8214L586.8 88.4977L588.889 82.624L590.978 88.4977L596.608 85.8214L593.932 91.4517L599.806 93.5404Z" fill="#1C1C1C"/>
<path d="M401.881 90.2641L396.007 92.3528L398.684 97.9831L393.053 95.3068L390.964 101.18L388.876 95.3068L383.245 97.9831L385.922 92.3528L380.048 90.2641L385.922 88.1753L383.245 82.545L388.876 85.2213L390.964 79.3477L393.053 85.2213L398.684 82.545L396.007 88.1753L401.881 90.2641Z" fill="#1C1C1C"/>
<path d="M203.955 93.5404L198.081 95.6292L200.758 101.26L195.127 98.5832L193.039 104.457L190.95 98.5832L185.32 101.26L187.996 95.6292L182.122 93.5404L187.996 91.4517L185.32 85.8214L190.95 88.4977L193.039 82.624L195.127 88.4977L200.758 85.8214L198.081 91.4517L203.955 93.5404Z" fill="#1C1C1C"/>
<path d="M1195.25 254.487L1189.38 256.575L1192.05 262.206L1186.42 259.529L1184.34 265.403L1182.25 259.529L1176.62 262.206L1179.29 256.575L1173.42 254.487L1179.29 252.398L1176.62 246.768L1182.25 249.444L1184.34 243.57L1186.42 249.444L1192.05 246.768L1189.38 252.398L1195.25 254.487Z" fill="#1C1C1C"/>
<path d="M22.5811 92.4482L16.7074 94.5369L19.3837 100.167L13.7534 97.4909L11.6646 103.365L9.57588 97.4909L3.94557 100.167L6.62192 94.5369L0.748228 92.4482L6.62192 90.3594L3.94557 84.7291L9.57588 87.4054L11.6646 81.5317L13.7534 87.4054L19.3837 84.7291L16.7074 90.3594L22.5811 92.4482Z" fill="#1C1C1C"/>
<path d="M24.251 254.487L18.3773 256.575L21.0536 262.206L15.4233 259.529L13.3346 265.403L11.2458 259.529L5.61549 262.206L8.29184 256.575L2.41815 254.487L8.29184 252.398L5.61549 246.768L11.2458 249.444L13.3346 243.57L15.4233 249.444L21.0536 246.768L18.3773 252.398L24.251 254.487Z" fill="#1C1C1C"/>
<path d="M997.326 255.032L991.452 257.121L994.129 262.751L988.499 260.075L986.41 265.949L984.321 260.075L978.691 262.751L981.367 257.121L975.493 255.032L981.367 252.943L978.691 247.313L984.321 249.989L986.41 244.116L988.499 249.989L994.129 247.313L991.452 252.943L997.326 255.032Z" fill="#1C1C1C"/>
<path d="M799.401 253.394L793.528 255.483L796.204 261.113L790.574 258.437L788.485 264.31L786.396 258.437L780.766 261.113L783.442 255.483L777.569 253.394L783.442 251.305L780.766 245.675L786.396 248.351L788.485 242.478L790.574 248.351L796.204 245.675L793.528 251.305L799.401 253.394Z" fill="#1C1C1C"/>
<path d="M601.476 255.579L595.602 257.668L598.278 263.298L592.648 260.622L590.559 266.495L588.47 260.622L582.84 263.298L585.516 257.668L579.643 255.579L585.516 253.49L582.84 247.86L588.47 250.536L590.559 244.663L592.648 250.536L598.278 247.86L595.602 253.49L601.476 255.579Z" fill="#1C1C1C"/>
<path d="M403.551 252.303L397.677 254.391L400.353 260.022L394.723 257.345L392.634 263.219L390.546 257.345L384.915 260.022L387.592 254.391L381.718 252.303L387.592 250.214L384.915 244.584L390.546 247.26L392.634 241.386L394.723 247.26L400.353 244.584L397.677 250.214L403.551 252.303Z" fill="#1C1C1C"/>
<path d="M205.626 255.579L199.752 257.668L202.429 263.298L196.798 260.622L194.71 266.495L192.621 260.622L186.99 263.298L189.667 257.668L183.793 255.579L189.667 253.49L186.99 247.86L192.621 250.536L194.71 244.663L196.798 250.536L202.429 247.86L199.752 253.49L205.626 255.579Z" fill="#1C1C1C"/>
</svg>
