<svg width="51" height="53" viewBox="0 0 51 53" fill="none" xmlns="http://www.w3.org/2000/svg">
<path d="M25.5934 0.713379L27.0721 18.1316L34.419 2.26957L29.8511 19.1431L42.1801 6.75044L32.1166 21.0441L47.9406 13.6155L33.5953 23.6053L51.0057 22.0368L34.1088 26.5177L51.0057 30.9986L33.5953 29.4301L47.9406 39.4199L32.1166 31.9913L42.1801 46.285L29.8511 33.8923L34.419 50.7658L27.0721 34.9038L25.5934 52.322L24.1147 34.9038L16.7678 50.7658L21.3357 33.8923L9.00669 46.285L19.0702 31.9913L3.24619 39.4199L17.5915 29.4301L0.181087 30.9986L17.078 26.5177L0.181087 22.0368L17.5915 23.6053L3.24619 13.6155L19.0702 21.0441L9.00669 6.75044L21.3357 19.1431L16.7678 2.26957L24.1147 18.1316L25.5934 0.713379Z" fill="#030211"/>
</svg>
