<svg width="11" height="11" viewBox="0 0 11 11" fill="none" xmlns="http://www.w3.org/2000/svg">
<path d="M10.3338 5.40133C10.4244 5.49275 10.4752 5.61623 10.4752 5.74491C10.4752 5.87359 10.4244 5.99707 10.3338 6.0885L5.99379 10.4285C5.90122 10.517 5.77825 10.5666 5.6502 10.5672C5.5862 10.5669 5.52282 10.5546 5.46334 10.531C5.37557 10.4941 5.30069 10.4321 5.24813 10.3527C5.19557 10.2733 5.16768 10.1802 5.16797 10.085V6.22714H0.82793C0.700036 6.22714 0.577379 6.17633 0.486944 6.0859C0.396509 5.99546 0.345703 5.87281 0.345703 5.74491C0.345703 5.61702 0.396509 5.49436 0.486944 5.40393C0.577379 5.31349 0.700036 5.26269 0.82793 5.26269H5.16797V1.40487C5.16768 1.30966 5.19557 1.2165 5.24813 1.13712C5.30069 1.05774 5.37557 0.995699 5.46334 0.958808C5.55241 0.924065 5.6495 0.915252 5.74337 0.933386C5.83725 0.951521 5.92407 0.995862 5.99379 1.06128L10.3338 5.40133Z" fill="white"/>
</svg>
