<svg width="113" height="113" viewBox="0 0 113 113" fill="none" xmlns="http://www.w3.org/2000/svg">
<path d="M51.5486 3.32887C53.9315 -0.152639 59.0684 -0.152635 61.4513 3.32887L62.4841 4.83787C64.3262 7.52936 67.981 8.25634 70.713 6.47469L72.2446 5.4758C75.7784 3.17119 80.5243 5.137 81.3935 9.26538L81.7702 11.0547C82.4421 14.2463 85.5405 16.3166 88.7463 15.716L90.5436 15.3793C94.6904 14.6025 98.3227 18.2348 97.5458 22.3815L97.2091 24.1789C96.6086 27.3846 98.6788 30.483 101.87 31.155L103.66 31.5317C107.788 32.4009 109.754 37.1467 107.449 40.6805L106.45 42.2122C104.669 44.9441 105.396 48.5989 108.087 50.4411L109.596 51.4739C113.078 53.8568 113.078 58.9937 109.596 61.3765L108.087 62.4093C105.396 64.2515 104.669 67.9063 106.45 70.6382L107.449 72.1699C109.754 75.7037 107.788 80.4495 103.66 81.3187L101.87 81.6954C98.6788 82.3674 96.6086 85.4658 97.2091 88.6716L97.5458 90.4689C98.3227 94.6156 94.6904 98.248 90.5436 97.4711L88.7463 97.1344C85.5405 96.5338 82.4421 98.6041 81.7702 101.796L81.3935 103.585C80.5243 107.713 75.7784 109.679 72.2446 107.375L70.713 106.376C67.981 104.594 64.3262 105.321 62.4841 108.013L61.4513 109.522C59.0684 113.003 53.9315 113.003 51.5486 109.522L50.5158 108.013C48.6736 105.321 45.0189 104.594 42.2869 106.376L40.7553 107.375C37.2215 109.679 32.4756 107.713 31.6064 103.585L31.2297 101.796C30.5577 98.6041 27.4594 96.5338 24.2536 97.1344L22.4563 97.4711C18.3095 98.248 14.6772 94.6156 15.454 90.4689L15.7907 88.6716C16.3913 85.4658 14.321 82.3674 11.1295 81.6954L9.34009 81.3187C5.21171 80.4495 3.24591 75.7037 5.55052 72.1699L6.5494 70.6382C8.33105 67.9063 7.60407 64.2515 4.91257 62.4093L3.40358 61.3765C-0.0779283 58.9937 -0.0779262 53.8568 3.40358 51.4739L4.91257 50.4411C7.60407 48.5989 8.33105 44.9441 6.5494 42.2122L5.55051 40.6805C3.2459 37.1467 5.21171 32.4009 9.34009 31.5317L11.1295 31.155C14.321 30.483 16.3913 27.3846 15.7907 24.1789L15.454 22.3815C14.6772 18.2348 18.3095 14.6025 22.4563 15.3793L24.2536 15.716C27.4594 16.3166 30.5578 14.2463 31.2297 11.0547L31.6064 9.26537C32.4756 5.13699 37.2215 3.17119 40.7553 5.4758L42.2869 6.47469C45.0189 8.25634 48.6736 7.52936 50.5158 4.83786L51.5486 3.32887Z" fill="white"/>
</svg>
