<svg width="19" height="17" viewBox="0 0 19 17" fill="none" xmlns="http://www.w3.org/2000/svg">
<path d="M17.894 7.89591C18.0528 8.05629 18.1419 8.27289 18.1419 8.49862C18.1419 8.72435 18.0528 8.94095 17.894 9.10133L10.2808 16.7145C10.1184 16.8697 9.90269 16.9568 9.67806 16.9577C9.5658 16.9572 9.45462 16.9357 9.35028 16.8943C9.19632 16.8296 9.06496 16.7207 8.97276 16.5815C8.88056 16.4422 8.83163 16.2788 8.83215 16.1118V9.34453H1.21896C0.994608 9.34453 0.779447 9.25541 0.620808 9.09677C0.462169 8.93813 0.373047 8.72297 0.373047 8.49862C0.373047 8.27427 0.462169 8.05911 0.620808 7.90047C0.779447 7.74183 0.994608 7.65271 1.21896 7.65271H8.83215V0.885422C8.83163 0.718417 8.88056 0.554996 8.97276 0.41575C9.06496 0.276505 9.19632 0.167668 9.35028 0.102954C9.50652 0.0420099 9.67683 0.0265493 9.8415 0.0583603C10.0062 0.0901714 10.1585 0.167954 10.2808 0.28271L17.894 7.89591Z" fill="#030211"/>
</svg>
