<svg width="31" height="31" viewBox="0 0 31 31" fill="none" xmlns="http://www.w3.org/2000/svg">
<path d="M14.6215 1.35094C15.0218 0.835574 15.8006 0.835574 16.2009 1.35095L17.1892 2.62311C17.4996 3.02279 18.0598 3.12749 18.4937 2.86696L19.8747 2.0377C20.4342 1.70176 21.1604 1.98307 21.3475 2.60826L21.8095 4.15152C21.9546 4.63636 22.4391 4.93634 22.9378 4.85014L24.5252 4.57578C25.1682 4.46463 25.7437 4.98925 25.6924 5.63984L25.5657 7.24576C25.5258 7.75029 25.8692 8.20502 26.3654 8.3048L27.9447 8.62239C28.5845 8.75105 28.9316 9.44814 28.6487 10.0362L27.9504 11.4879C27.731 11.944 27.887 12.4921 28.3136 12.7644L29.6715 13.631C30.2216 13.9821 30.2935 14.7575 29.8173 15.2037L28.6417 16.3051C28.2724 16.6512 28.2198 17.2186 28.5192 17.6266L29.4724 18.9252C29.8585 19.4513 29.6454 20.2003 29.0402 20.4444L27.5461 21.0468C27.0767 21.236 26.8227 21.7461 26.9546 22.2347L27.3742 23.79C27.5442 24.4201 27.075 25.0415 26.4224 25.0504L24.8117 25.0724C24.3056 25.0793 23.8845 25.4632 23.8309 25.9665L23.6604 27.5683C23.5913 28.2173 22.9292 28.6272 22.3175 28.3998L20.8076 27.8384C20.3332 27.6621 19.8019 27.8679 19.5701 28.3178L18.8325 29.7499C18.5336 30.3301 17.7682 30.4732 17.2799 30.0401L16.0747 28.9712C15.6961 28.6354 15.1263 28.6354 14.7476 28.9712L13.5425 30.0401C13.0542 30.4732 12.2888 30.3301 11.9899 29.7499L11.2523 28.3178C11.0205 27.8679 10.4892 27.6621 10.0148 27.8384L8.50484 28.3998C7.89315 28.6272 7.23106 28.2173 7.16198 27.5683L6.99146 25.9665C6.93789 25.4632 6.51678 25.0793 6.01073 25.0724L4.39997 25.0504C3.74742 25.0415 3.27814 24.4201 3.44815 23.79L3.8678 22.2347C3.99964 21.7461 3.74565 21.236 3.27627 21.0468L1.78222 20.4444C1.17696 20.2003 0.963848 19.4513 1.34998 18.9252L2.30314 17.6266C2.60259 17.2186 2.55001 16.6512 2.18069 16.3051L1.00513 15.2037C0.528901 14.7575 0.600754 13.9821 1.15087 13.631L2.50879 12.7644C2.93541 12.4921 3.09135 11.944 2.87197 11.4879L2.17367 10.0362C1.89078 9.44814 2.23789 8.75105 2.87768 8.62239L4.45698 8.3048C4.95315 8.20502 5.29655 7.75029 5.25673 7.24576L5.13001 5.63983C5.07867 4.98925 5.65415 4.46463 6.29722 4.57578L7.8846 4.85014C8.38331 4.93634 8.86779 4.63636 9.01292 4.15152L9.47488 2.60826C9.66202 1.98306 10.3882 1.70176 10.9477 2.0377L12.3287 2.86697C12.7626 3.12749 13.3227 3.02279 13.6332 2.62311L14.6215 1.35094Z" fill="#030211"/>
</svg>
