<svg width="30" height="31" fill="none" xmlns="http://www.w3.org/2000/svg"><path d="M14.468 1.325a1 1 0 0 1 1.58 0l.988 1.272a1 1 0 0 0 1.304.244l1.381-.83a1 1 0 0 1 1.473.571l.462 1.544a1 1 0 0 0 1.129.698l1.587-.274a1 1 0 0 1 1.167 1.064l-.127 1.606a1 1 0 0 0 .8 1.059l1.58.318a1 1 0 0 1 .703 1.414l-.698 1.451a1 1 0 0 0 .363 1.277l1.358.866a1 1 0 0 1 .146 1.573l-1.176 1.101a1 1 0 0 0-.122 1.322l.953 1.299a1 1 0 0 1-.432 1.519l-1.494.602a1 1 0 0 0-.592 1.188l.42 1.555a1 1 0 0 1-.952 1.26l-1.61.023a1 1 0 0 0-.981.894l-.17 1.602a1 1 0 0 1-1.344.831l-1.51-.561a1 1 0 0 0-1.237.48l-.738 1.431a1 1 0 0 1-1.552.29l-1.206-1.069a1 1 0 0 0-1.327 0l-1.205 1.07a1 1 0 0 1-1.552-.29l-.738-1.433a1 1 0 0 0-1.238-.48l-1.51.562a1 1 0 0 1-1.342-.831l-.17-1.602a1 1 0 0 0-.982-.894l-1.61-.022a1 1 0 0 1-.952-1.26l.42-1.556a1 1 0 0 0-.592-1.188l-1.494-.602a1 1 0 0 1-.432-1.52l.953-1.298a1 1 0 0 0-.123-1.322L.852 15.178a1 1 0 0 1 .146-1.573l1.357-.866a1 1 0 0 0 .364-1.277l-.699-1.451a1 1 0 0 1 .704-1.414l1.58-.318a1 1 0 0 0 .8-1.059l-.127-1.606A1 1 0 0 1 6.144 4.55l1.587.274a1 1 0 0 0 1.129-.698l.462-1.544a1 1 0 0 1 1.472-.57l1.381.83a1 1 0 0 0 1.305-.245l.988-1.272z" fill="#fff"/></svg>