<svg width="11" height="11" viewBox="0 0 11 11" fill="none" xmlns="http://www.w3.org/2000/svg">
<path d="M10.1815 5.37459C10.272 5.46602 10.3228 5.5895 10.3228 5.71818C10.3228 5.84686 10.272 5.97034 10.1815 6.06177L5.84144 10.4018C5.74888 10.4903 5.62591 10.5399 5.49786 10.5405C5.43386 10.5402 5.37048 10.5279 5.311 10.5043C5.22323 10.4674 5.14835 10.4053 5.09578 10.326C5.04322 10.2466 5.01533 10.1534 5.01563 10.0582V6.20041H0.675587C0.547692 6.20041 0.425036 6.1496 0.3346 6.05917C0.244165 5.96873 0.193359 5.84607 0.193359 5.71818C0.193359 5.59028 0.244165 5.46763 0.3346 5.37719C0.425036 5.28676 0.547692 5.23595 0.675587 5.23595H5.01563V1.37813C5.01533 1.28293 5.04322 1.18977 5.09578 1.11039C5.14835 1.03101 5.22323 0.968965 5.311 0.932074C5.40007 0.897332 5.49716 0.888518 5.59103 0.906653C5.6849 0.924787 5.77172 0.969129 5.84144 1.03455L10.1815 5.37459Z" fill="black"/>
</svg>
