<svg width="56" height="56" viewBox="0 0 56 56" fill="none" xmlns="http://www.w3.org/2000/svg">
<path d="M27.8238 1.65072C28.0239 1.39304 28.4133 1.39304 28.6135 1.65072L29.0021 1.34888L28.6135 1.65072L31.5418 5.42031C32.0075 6.01982 32.8477 6.17687 33.4985 5.78608L37.5908 3.32888C37.8706 3.16091 38.2336 3.30156 38.3272 3.61416L39.6961 8.18701C39.9138 8.91428 40.6405 9.36424 41.3885 9.23495L46.0921 8.42198C46.4137 8.36641 46.7014 8.62872 46.6757 8.95401L46.3002 13.7126C46.2405 14.4693 46.7556 15.1514 47.4999 15.3011L52.1795 16.2422C52.4994 16.3065 52.673 16.6551 52.5315 16.9491L50.4624 21.2507C50.1333 21.9348 50.3672 22.7569 51.0071 23.1653L55.0308 25.7333C55.3059 25.9089 55.3418 26.2966 55.1037 26.5197L51.6204 29.7833C51.0664 30.3023 50.9875 31.1534 51.4367 31.7654L54.261 35.6135C54.4541 35.8766 54.3475 36.2511 54.0449 36.3731L49.6179 38.158C48.9138 38.4419 48.5328 39.207 48.7306 39.94L49.9741 44.5485C50.0591 44.8635 49.8244 45.1743 49.4981 45.1787L44.7252 45.2439C43.9662 45.2542 43.3345 45.8301 43.2541 46.5849L42.7489 51.3315C42.7143 51.6559 42.3833 51.8609 42.0774 51.7472L37.6033 50.0838C36.8918 49.8192 36.0947 50.128 35.7471 50.8029L33.5613 55.0464C33.4119 55.3364 33.0292 55.408 32.7851 55.1915L29.2139 52.0241C28.646 51.5204 27.7913 51.5204 27.2233 52.0241L23.6522 55.1915C23.4081 55.408 23.0254 55.3364 22.8759 55.0464L20.6901 50.8029C20.3425 50.128 19.5455 49.8192 18.8339 50.0838L14.3598 51.7472C14.054 51.8609 13.7229 51.6559 13.6884 51.3315L13.1831 46.5849C13.1028 45.8301 12.4711 45.2542 11.712 45.2439L6.93912 45.1787C6.61285 45.1743 6.37821 44.8635 6.46321 44.5485L7.7067 39.94C7.90447 39.207 7.52347 38.4419 6.8194 38.158L2.39235 36.3731C2.08972 36.2511 1.98317 35.8766 2.17623 35.6135L5.00055 31.7654C5.44972 31.1534 5.37086 30.3023 4.81687 29.7833L1.33356 26.5197C1.09544 26.2966 1.13137 25.9089 1.40643 25.7333L5.43012 23.1653C6.07004 22.7569 6.30396 21.9348 5.97488 21.2507L3.90575 16.9491C3.76431 16.6551 3.93786 16.3065 4.25776 16.2422L8.93741 15.3011C9.68165 15.1514 10.1968 14.4693 10.137 13.7126L9.76153 8.95401C9.73586 8.62872 10.0236 8.36641 10.3451 8.42198L15.0487 9.23495C15.7968 9.36424 16.5235 8.91428 16.7412 8.18701L18.11 3.61416C18.2036 3.30156 18.5667 3.16091 18.8464 3.32888L22.9387 5.78608C23.5896 6.17687 24.4298 6.01982 24.8955 5.42031L27.8238 1.65072L27.4356 1.34921L27.8238 1.65072Z" stroke="white"/>
</svg>
