<svg width="11" height="11" viewBox="0 0 11 11" fill="none" xmlns="http://www.w3.org/2000/svg">
<path d="M10.3338 5.06551C10.4244 5.15694 10.4752 5.28042 10.4752 5.4091C10.4752 5.53778 10.4244 5.66126 10.3338 5.75268L5.99379 10.0927C5.90122 10.1812 5.77825 10.2308 5.6502 10.2314C5.5862 10.2311 5.52282 10.2188 5.46334 10.1952C5.37557 10.1583 5.30069 10.0963 5.24813 10.0169C5.19557 9.93751 5.16768 9.84435 5.16797 9.74914V5.89132H0.82793C0.700036 5.89132 0.577379 5.84052 0.486944 5.75008C0.396509 5.65965 0.345703 5.53699 0.345703 5.4091C0.345703 5.2812 0.396509 5.15855 0.486944 5.06811C0.577379 4.97768 0.700036 4.92687 0.82793 4.92687H5.16797V1.06905C5.16768 0.973849 5.19557 0.880687 5.24813 0.801308C5.30069 0.721928 5.37557 0.659883 5.46334 0.622992C5.55241 0.58825 5.6495 0.579436 5.74337 0.597571C5.83725 0.615705 5.92407 0.660047 5.99379 0.725465L10.3338 5.06551Z" fill="white"/>
</svg>
