<svg width="36" height="28" viewBox="0 0 36 28" fill="none" xmlns="http://www.w3.org/2000/svg">
<path d="M13.3004 0.758057L15.2004 4.15805C14.1337 5.62472 13.1337 7.25806 12.2004 9.05806C11.3337 10.8581 10.8337 12.7247 10.7004 14.6581L16.2004 15.6581V27.1581H0.900391V18.9581C0.900391 14.2247 2.00039 10.4247 4.20039 7.55806C6.46706 4.62472 9.50039 2.35806 13.3004 0.758057ZM33.1004 0.758057L35.0004 4.15805C33.9337 5.62472 32.9337 7.25806 32.0004 9.05806C31.1337 10.8581 30.6337 12.7247 30.5004 14.6581L36.0004 15.6581V27.1581H20.7004V18.9581C20.7004 14.2247 21.8004 10.4247 24.0004 7.55806C26.2671 4.62472 29.3004 2.35806 33.1004 0.758057Z" fill="#030211"/>
</svg>
